<?xml version="1.0" encoding="utf-8"?>
<!DOCTYPE svg>
<svg version="1.1" baseProfile="full" xmlns="http://www.w3.org/2000/svg" xmlns:xlink="http://www.w3.org/1999/xlink" x="0px" y="0px" width="32px" height="32px" viewBox="0 0 32 32" enable-background="new 0 0 32 32" xml:space="preserve">
<rect fill="#00aced" width="32" height="32"/>
<path fill="#ffffff" d="M26.666,9.384c-0.784,0.348-1.628,0.583-2.514,0.689c0.904-0.542,1.598-1.399,1.925-2.422c-0.846,0.5-1.782,0.866-2.779,1c-0.798-0.851-1.936-1.382-3.194-1.382c-2.418,0-4.377,1.959-4.377,4.376c0,0.343,0,0.677,0.113,1c-3.638-0.183-6.863-1.925-9-4.573c-0.376,0.646-0.592,1.398-0.592,2.2c0,1.519,0.772,2.858,1.947,3.643c-0.717-0-1.392-0.22-1.982-0.547c0,0,0,0,0,0c0,2.12,1.5,3.889,3.511,4.292c-0.367,0.1-0.754,0.153-1.153,0.153c-0.282,0-0.556-0-0.823-0c0.557,1.739,2.173,3,4,3c-1.498,1.175-3.385,1.874-5.436,1.874c-0.354,0-0.702-0-1-0.062c1.937,1.241,4.237,1.967,6.709,1.967c8.051,0,12.454-6.669,12.454-12.453c0-0.19-0-0.378-0-0.566C25.338,11.032,26.08,10.262,26.666,9.384z"/>
</svg>
