<?xml version="1.0" encoding="utf-8"?>
<!DOCTYPE svg>
<svg version="1.1" baseProfile="full" xmlns="http://www.w3.org/2000/svg" xmlns:xlink="http://www.w3.org/1999/xlink" x="0px" y="0px" width="32px" height="32px" viewBox="0 0 32 32" enable-background="new 0 0 32 32" xml:space="preserve">
<rect fill="#ce3825" width="32" height="32"/>
<polygon fill="#ffffff" points="31,8 26,8 26,3 24,3 24,8 19,8 19,10 24,10 24,15 26,15 26,10 31,10"/>
<path fill="#ffffff" d="M18.5,2H8.8C7.512,2,6.133,2.151,4.662,2.452C3.175,2.801,1.742,3.546,0.363,4.688C0.238,4.809,0.117,4.932,0,5.055v11.91c1.32,1.239,3.114,1.873,5.381,1.9c0.488,0,1.007-0.031,1.558-0.097c-0.091,0.256-0.19,0.535-0.296,0.838c-0.122,0.287-0.182,0.646-0.182,1.076c0,0.717,0.159,1.331,0.478,1.842c0.274,0.525,0.586,1.021,0.935,1.483c-1.131,0.031-2.554,0.173-4.266,0.427C2.365,24.649,1.162,25.023,0,25.55v2.683c0.216-0.301,0.455-0.568,0.719-0.803c0.463-0.381,0.919-0.674,1.366-0.881c0.448-0.19,0.795-0.332,1.043-0.429c1.049-0.316,2.077-0.547,3.081-0.688c1.019-0.096,1.652-0.127,1.9-0.096c0.417,0,0.779,0.016,1.088,0.047c1.807,1.271,3.135,2.34,3.984,3.213c0.803,0.921,1.205,1.998,1.205,3.235c0,0.057-0.002,0.112-0.004,0.169h2.841c0.19-0.667,0.287-1.358,0.287-2.074c-0.029-1.666-0.408-3.013-1.135-4.045c-0.771-1.015-1.668-1.941-2.69-2.783l-1.646-1.356c-0.237-0.236-0.481-0.514-0.733-0.832c-0.296-0.332-0.445-0.753-0.445-1.261c0-0.522,0.145-0.982,0.434-1.38c0.246-0.38,0.513-0.722,0.802-1.022c0.506-0.444,0.983-0.88,1.431-1.309c0.404-0.428,0.788-0.896,1.149-1.403c0.737-1.047,1.12-2.442,1.149-4.187c0-0.952-0.107-1.784-0.32-2.498c-0.259-0.714-0.555-1.332-0.891-1.855c-0.35-0.555-0.709-1.023-1.074-1.403C13.161,4.226,12.818,4.19,12.514,4h2.99L18.5,2z M11.607,14.247c-0.117,0.651-0.381,1.287-0.791,1.906c-0.852,0.875-1.916,1.334-3.192,1.384c-1.01,0-1.909-0.311-2.695-0.931c-0.786-0.62-1.428-1.375-1.925-2.265c-1.027-1.906-1.54-3.743-1.54-5.506c-0.032-1.334,0.32-2.542,1.055-3.623C3.39,4.179,4.483,3.647,5.798,3.615C6.792,3.647,7.67,3.941,8.435,4.498c0.748,0.588,1.353,1.35,1.812,2.288c0.978,1.955,1.467,3.894,1.467,5.816C11.713,13.047,11.678,13.595,11.607,14.247z"/>
</svg>
