<?xml version="1.0" encoding="utf-8"?>
<!DOCTYPE svg>
<svg version="1.1" baseProfile="full" xmlns="http://www.w3.org/2000/svg" xmlns:xlink="http://www.w3.org/1999/xlink" x="0px" y="0px" width="32px" height="32px" viewBox="0 0 32 32" enable-background="new 0 0 32 32" xml:space="preserve">
<polygon fill="#e44d26" points="7,29.4 5,6 27,6 25,29.4 16,32"/>
<polygon fill="#f16529" points="16,30 23.25,28 25,8 16,8"/>
<polygon fill="#ebebeb" points="9.836,20 16,20 16,17 12.355,17 12.15,14 16,14 16,11 9,11"/>
<polygon fill="#ebebeb" points="16,24.25 12.92,23.4 12.724,21.5 9.959,21.5 10.346,25.619 16,27.25"/>
<polygon fill="#ffffff" points="22.393,17 16,17 16,20 19.33,20 19.062,23.4 16,24.25 16,27.25 21.637,25.619"/>
<polygon fill="#ffffff" points="16,14 22.634,14 22.85,11 16,11"/>
<path fill="#ffffff" d="M7,0h1.404v1.321h1.285V0h1.404v4H9.688V2.66H8.404V4H7V0L7,0z"/>
<path fill="#ffffff" d="M12.938,1.327h-1.236V0h3.876v1.327h-1.237V4h-1.404V1.327L12.938,1.327z"/>
<path fill="#ffffff" d="M16.194,0h1.464l0.9,1.405L19.459,0h1.465v4h-1.398V2.017l-0.967,1.422h-0.025l-0.965-1.422V4h-1.374V0z"/>
<path fill="#ffffff" d="M21.621,0h1.406v2.678H25V4h-3.379V0z"/>
</svg>
