<?xml version="1.0" encoding="utf-8"?>
<!DOCTYPE svg>
<svg version="1.1" baseProfile="full" xmlns="http://www.w3.org/2000/svg" xmlns:xlink="http://www.w3.org/1999/xlink" x="0px" y="0px" width="106px" height="32px" viewBox="0 0 106 32" enable-background="new 0 0 106 32" xml:space="preserve">
<g fill="#ffffff">
	<path d="M26,22.774c0.707,0.757,2.455,1.726,4.848,1.726c3.466,0,4.969-1.696,5.091-4.603C36,18.808,36,17.627,36,16.537V4h-2.423v15.383c0,1.756-0.582,3.088-2.822,3.088c-1.472,0-2.577-0.666-3.528-1.393L26,22.774z"/>
	<path d="M45.206,22.67c-3.337,0-3.923-3.564-3.923-6.582c0-3.291,1.259-5.729,4.04-5.729c2.84,0,3.865,2.56,3.865,6.216C49.187,19.897,47.987,22.67,45.206,22.67z M39,16.393c0,5.485,2.283,8.107,6.001,8.107c3.659,0,6.499-2.5,6.499-8.442c0-6.888-3.981-7.558-6.001-7.558C42.601,8.5,39,10.084,39,16.393z"/>
	<path d="M66,23.378V9h-2.345v8.982c0,2.08-1.418,3.527-3.764,3.527c-3.269,0-3.486-1.748-3.486-4.04V9H54v9.103c0,3.437,1.696,4.673,4.319,4.944c-1.512,0.965-3.394,2.713-3.394,5.154c0,2.321,1.51,3.799,4.658,3.799c3.27,0,5.244-1.538,6.016-4.462C65.876,26.483,66,24.705,66,23.378z M57.239,27.901c0-2.865,2.684-4.492,6.386-5.999v2.623c0,3.284-0.988,5.666-3.795,5.666C58.134,30.19,57.239,29.377,57.239,27.901z"/>
	<path d="M76.129,8.5c-4.539,0-6.929,3.717-6.929,8.228c0,4.541,1.971,7.772,6.631,7.772c2.39,0,4.122-1.098,4.869-1.738l-0.897-1.555c-0.565,0.426-1.821,1.402-3.823,1.402c-3.165,0-4.359-2.62-4.479-5.12c0.237,0,0.477,0.032,0.775,0.032c2.897,0,8.214-0.732,8.214-5.242C80.491,10.024,78.907,8.5,76.129,8.5z M78.31,12.553c0,2.742-4.181,3.23-6.212,3.23c-0.239,0-0.419-0.03-0.597-0.03c0.09-2.408,1.313-5.486,4.509-5.486C77.354,10.267,78.31,11.121,78.31,12.553z"/>
	<path d="M85.515,24v-9.889c0-1.82,1.758-3.73,4.091-3.73c2.546,0,3.031,1.819,3.031,4.063V24H95V13.717c0-3.458-1.696-5.217-4.818-5.217c-1.97,0-3.727,0.91-4.878,2.608L85.03,8.925H83l0.152,2.274V24H85.515z"/>
	<path d="M98,3v16.949c0,2.214,0.127,4.551,4.384,4.551c1.279,0,2.688-0.395,3.616-1.002l-0.737-1.577c-0.544,0.304-1.343,0.729-2.432,0.729c-1.504,0-2.336-0.638-2.336-2.638v-8.977h4.545V9.004h-4.545V3H98z"/>
</g>
<path fill="#ffffff" d="M12,2c6.627,0,12,5.373,12,12c0,6.627-5.373,12-12,12S0,20.627,0,14C0,7.373,5.373,2,12,2z M9.826,7.462C9.826,7.207,10.032,7,10.288,7h3.426c0.254,0,0.461,0.207,0.461,0.462v4.364h4.364c0.255,0,0.461,0.207,0.461,0.461v3.425c0,0.255-0.207,0.461-0.461,0.461h-4.364v4.364c0,0.254-0.207,0.461-0.461,0.461h-3.426c-0.255,0-0.462-0.207-0.462-0.461v-4.364H5.462C5.207,16.174,5,15.968,5,15.713v-3.425c0-0.255,0.207-0.461,0.462-0.461h4.364V7.462z"/>
</svg>
