<?xml version="1.0" encoding="utf-8"?>
<!DOCTYPE svg>
<svg version="1.1" baseProfile="full" xmlns="http://www.w3.org/2000/svg" xmlns:xlink="http://www.w3.org/1999/xlink" x="0px" y="0px" width="32px" height="32px" viewBox="0 0 32 32" enable-background="new 0 0 32 32" xml:space="preserve">
<rect fill="#3399CC" width="32" height="32"/>
<polygon fill="#ffffff" points="10,27 10,12 5,12 5,27 10,27"/>
<path fill="#ffffff" d="M18,18.651c0-0.446-0.021-0.893,0.1-1.213c0.331-0.892,0.633-1.688,1.9-1.688c1.658,0,2,1.242,2,3.25v8h5v-8.572c0-4.591-1.982-6.728-5-6.728c-2.475,0-3.396,1.498-4,2.519V12h-5v15l0,0h5V18.651z"/>
<circle fill="#ffffff" cx="7.5" cy="7.5" r="2.5"/>
</svg>
