<?xml version="1.0" encoding="utf-8"?>
<!DOCTYPE svg>
<svg version="1.1" baseProfile="full" xmlns="http://www.w3.org/2000/svg" xmlns:xlink="http://www.w3.org/1999/xlink" x="0px" y="0px" width="32px" height="32px" viewBox="0 0 32 32" enable-background="new 0 0 32 32" xml:space="preserve">
<rect fill="#CB2027" width="32" height="32"/>
<path fill="#FFFFFF" d="M9,32c-0-1.207,0-2.689,0.382-4c0.331-1.4,2.22-9.412,2.22-9.412S11,17.5,11,15.859c0-2.558,1.533-4.5,3.378-4.5c1.57,0,2.328,1.181,2.328,2.591c0,1.579-1.007,3.94-1.523,6.122c-0.433,1.834,0.914,3.324,2.722,3.324c3.272,0,5.5-4.197,5.474-9.172c0-3.782-2.55-6.612-7.183-6.612c-5.232,0-8.5,3.903-8.5,8.262c0,1.503,0.442,2.564,1.137,3.388C9.159,19.67,9.114,19.82,9,20.254c-0.084,0.314-0.187,1.082-0.265,1.383C8.62,22.076,8.267,22.16,7.872,22c-2.411-0.986-3.536-3.555-3.536-6.523c0-4.901,4.137-10.78,12.336-10.78c6.585,0,10.923,4.768,10.923,9.886c0,6.769-3.765,11.824-9.313,11.824c-1.857,0-3.612-1-4.212-2.148c0,0-1,4-1.215,4.742c-0.366,1.33-0.662,1.965-1.317,3H9z"/>
</svg>
