<?xml version="1.0" encoding="utf-8"?>
<!DOCTYPE svg>
<svg version="1.1" baseProfile="full" xmlns="http://www.w3.org/2000/svg" xmlns:xlink="http://www.w3.org/1999/xlink" x="0px" y="0px" width="320px" height="52px" viewBox="0 0 320 52" enable-background="new 0 0 320 52" xml:space="preserve">
<linearGradient id="svg-txplogo-grad1" gradientUnits="userSpaceOnUse" x1="130.1113" y1="-39.3296" x2="135.8262" y2="-33.6148" gradientTransform="matrix(1 0 0 -1 -101 -4.5)">
	<stop offset="0.125" style="stop-color:#7b6c35"/>
	<stop offset="0.875" style="stop-color:#b9aa69"/>
</linearGradient>
<linearGradient id="svg-txplogo-grad2" gradientUnits="userSpaceOnUse" x1="130.1069" y1="-39.3247" x2="135.7265" y2="-33.7051" gradientTransform="matrix(1 0 0 -1 -101 -4.5)">
	<stop offset="0" style="stop-color:#2b2414"/>
	<stop offset="0.75" style="stop-color:#624e22"/>
</linearGradient>
<linearGradient id="svg-txplogo-grad3" gradientUnits="userSpaceOnUse" x1="134.5894" y1="-34.8276" x2="130.6602" y2="-38.7568" gradientTransform="matrix(1 0 0 -1 -101 -4.5)">
	<stop offset="0.5" style="stop-color:#2d2400"/>
	<stop offset="0.875" style="stop-color:#211700"/>
</linearGradient>
<linearGradient id="svg-txplogo-grad4" gradientUnits="userSpaceOnUse" x1="109.2183" y1="-12.7163" x2="116.1816" y2="-19.6797" gradientTransform="matrix(1 0 0 -1 -101 -4.5)">
	<stop offset="0" style="stop-color:#ffffff"/>
	<stop offset="1" style="stop-color:#666666"/>
</linearGradient>
<linearGradient id="svg-txplogo-grad5" gradientUnits="userSpaceOnUse" x1="104.916" y1="-23.9824" x2="120.4233" y2="-8.4751" gradientTransform="matrix(1 0 0 -1 -101 -4.5)">
	<stop offset="0" style="stop-color:#0a0a0a"/>
	<stop offset="0.5" style="stop-color:#0f0f0f"/>
	<stop offset="1" style="stop-color:#1a1a1a"/>
</linearGradient>
<linearGradient id="svg-txplogo-grad6" gradientUnits="userSpaceOnUse" x1="101.4727" y1="-20.4619" x2="108.436" y2="-27.4253" gradientTransform="matrix(1 0 0 -1 -101 -4.5)">
	<stop offset="0" style="stop-color:#999999"/>
	<stop offset="1" style="stop-color:#1a1a1a"/>
</linearGradient>
<linearGradient id="svg-txplogo-grad7" gradientUnits="userSpaceOnUse" x1="116.9648" y1="-4.9727" x2="123.9268" y2="-11.9346" gradientTransform="matrix(1 0 0 -1 -101 -4.5)">
	<stop offset="0" style="stop-color:#cccccc"/>
	<stop offset="1" style="stop-color:#333333"/>
</linearGradient>
<linearGradient id="svg-txplogo-grad8" gradientUnits="userSpaceOnUse" x1="136.6304" y1="-15.9819" x2="151.603" y2="-15.9819" gradientTransform="matrix(1 0 0 -1 -101 -4.5)">
	<stop offset="0.125" style="stop-color:#cdcdcb"/>
	<stop offset="0.875" style="stop-color:#a09ea1"/>
</linearGradient>
<path d="M49.801,49.808c-1.81,1.809-3.693,2.66-4.433,1.921c-0.276-0.275,0,0,0,0c-0.132-0.131-4.855-5.344-10.224-10.713l0,0c-4.862-4.861-10.562-9.795-14.075-13.308c-3.51-3.51-9.347-10.065-9.353-10.069l0,0l-0.391-0.44l2.83-3.077l3.039-2.79l0.438,0.393c0.006,0.004,6.562,5.842,10.07,9.35c3.514,3.513,8.443,9.215,13.307,14.079l0,0c5.368,5.367,10.52,10.029,10.754,10.264C52.396,46.047,51.708,47.9,49.801,49.808z"/>
<path fill="url(#svg-txplogo-grad1)" d="M27.243,21.533c-3.483-3.483-10.042-9.325-10.042-9.325L14.594,14.6l-2.392,2.606c0,0,5.843,6.558,9.326,10.042c3.484,3.483,9.192,8.426,14.077,13.309c5.369,5.37,10.136,10.628,10.221,10.711c0.084,0.084,1.09,0.507,3.516-1.921c2.426-2.424,2-3.436,1.942-3.492c-0.056-0.057-5.365-4.874-10.735-10.244C35.666,30.725,30.726,25.017,27.243,21.533z"/>
<path fill="url(#svg-txplogo-grad2)" d="M48.841,49.826c-0.165-0.021-0.344-0.16-0.563-0.378c-0.246-0.247-5.24-5.321-10.61-10.69c-1.995-1.995-5.938-5.632-6.49-6.117c-0.963-0.849-0.876-1.713-0.366-2.549c0.519-0.853,1.78-1.898,2.63-1.971c-0.823-0.893-1.621-1.76-2.39-2.588c-2.344,1.303-5.038,2.869-5.433,2.474c-1.877-1.879-6.622-6.621-8.631-8.624c-0.882-0.883-0.763-1.828-0.265-2.76c0.545-1.02,1.938-2.134,2.765-2.357l0,0c-1.351-1.225-2.287-2.057-2.287-2.057l-2.606,2.392l-2.392,2.606c0,0,5.842,6.559,9.326,10.042c3.482,3.482,9.19,8.425,14.075,13.308c5.369,5.37,10.136,10.628,10.221,10.711C45.904,51.346,46.777,51.712,48.841,49.826z"/>
<path fill="#6b5600" d="M39.343,36.491c0,0-0.673-0.812-1.481-1.619c-0.808-0.808-1.696-1.638-1.696-1.638s0.982,1.116,1.508,1.643C38.201,35.4,39.343,36.491,39.343,36.491z M27.083,23.736c-0.768-0.769-2.019-2.02-2.019-2.02s1.157,1.48,1.858,2.181S27.851,24.502,27.083,23.736z M25.346,26.768c-1.234-1.234-3.229-3.123-6.452-6.346c-2.495-2.495-4.488-4.355-5.114-4.935l-0.145,0.157c0.866,0.828,4.585,4.396,6.625,6.438c2.319,2.316,6.257,6.004,7.306,6.858c1.05,0.854,3.068,2.611,4.606,4.152c1.537,1.538,3.155,2.965,3.155,2.965s-2.632-2.708-3.791-3.87C30.377,31.027,26.773,28.197,25.346,26.768z M24.576,21.316c0,0-1.615-1.615-4.052-4.052c-1.864-1.864-3.725-3.725-4.227-4.227l-0.009,0.009c0.496,0.555,2.396,2.675,4.101,4.379C22.368,19.405,24.576,21.316,24.576,21.316z M19.614,18.396c0.324,0.322,1.205,1.184,1.851,1.831c0.646,0.646,2,2.115,2.336,2.451c1.344,1.344,2.268,2.179,3.856,3.768c1.588,1.59,5.494,5.648,6.274,6.433c1.321,1.321,3.137,3.222,4.064,4.151c0.93,0.93,3.029,2.941,4.093,4.006c1.064,1.063,2.478,2.429,3.419,3.37c0.943,0.944,3.495,3.108,3.495,3.108s-4.06-4.001-5.513-5.455c-1.454-1.454-3.298-3.089-4.201-3.991c-1.257-1.258-3.324-3.475-4.389-4.539c-1.063-1.063-1.386-1.253-1.615-1.482c-0.228-0.229-2.45-2.558-3.043-3.15c-0.591-0.591-5.775-5.858-6.731-6.812c-0.955-0.956-1.965-1.937-2.369-2.343c-0.404-0.403-1.104-1.237-1.535-1.669c-0.431-0.43-1.158-1.076-1.669-1.588c-0.485-0.484-1.798-1.749-2.611-2.558l-0.279,0.258c1.385,1.358,2.254,1.934,2.781,2.461C18.382,17.197,19.292,18.071,19.614,18.396z M22.775,23.848c0.988,0.988,5.116,4.711,5.116,4.711s-2.824-2.692-4.251-4.12c-1.429-1.428-3.184-3.261-4.893-4.97c-1.426-1.426-3.746-3.773-4.478-4.514l-0.214,0.232c0.962,0.913,4.116,3.91,5.033,4.828C20.175,21.102,21.787,22.858,22.775,23.848z M43.705,43.168c-1.022-1.022-2.033-1.92-2.934-2.822c-0.903-0.9-3.5-3.612-3.5-3.612s2.652,3.029,3.635,4.013c0.983,0.982,1.682,1.465,2.854,2.637c1.171,1.172,2.941,3.017,3.641,3.717c0.565,0.563,1.811,1.55,2.269,1.909c0.042-0.045,0.086-0.089,0.125-0.132c-0.583-0.509-2.424-2.125-3.235-2.937C45.59,44.971,44.728,44.19,43.705,43.168z M47.232,44.192c-0.633-0.634-2.423-2.43-2.8-2.807c-0.377-0.376-1.73-1.435-1.73-1.435s0.936,1.022,1.192,1.278c0.255,0.256,1.683,1.44,2.747,2.505c0.914,0.913,3.353,3.392,4.023,4.073c0.088-0.127,0.166-0.246,0.231-0.359C50.206,46.849,47.774,44.733,47.232,44.192z M21.735,21.372c-1.116-1.144-2.467-2.647-2.947-3.128c-1.104-1.104-3.281-2.993-4.062-3.765l-0.132,0.121l-0.018,0.021c0.797,0.771,3.185,3.021,4.681,4.518C20.225,20.105,21.735,21.372,21.735,21.372z M20.827,20.935c1.213,1.211,10.131,9.941,11.275,11.085c1.144,1.147,2.45,2.561,3.123,3.234c0.673,0.673,2.53,2.585,2.53,2.585s-2.503-2.829-3.957-4.282c-1.453-1.456-5.013-5.134-6.656-6.777C25.938,25.573,20.827,20.935,20.827,20.935z"/>
<path fill="url(#svg-txplogo-grad3)" d="M35.303,39.008c-1.653-1.652-4.854-4.679-6.244-6.068c-0.229-0.229-3.038-2.979-3.63-3.572c-0.593-0.592-5.77-5.292-6.726-6.247c-0.956-0.954-2.032-2.256-2.437-2.661c-0.403-0.404-1.168-1.304-1.6-1.734c-0.431-0.431-1.092-1.142-1.604-1.653c-0.176-0.176-0.306-0.273-0.382-0.308l-0.06,0.056c0.035,0.079,0.139,0.218,0.334,0.413c0.553,0.554,1.266,1.427,1.588,1.75c0.324,0.323,1.4,1.38,2.047,2.025c0.646,0.646,1.869,2.051,2.206,2.388c1.344,1.343,2.398,2.05,3.987,3.639c1.589,1.588,5.37,5.378,6.151,6.161c1.321,1.321,3.262,2.975,4.189,3.904c0.93,0.93,3.029,3.137,4.093,4.199c1.064,1.064,2.471,2.522,3.414,3.465c0.942,0.943,3.5,3.337,3.5,3.337c-3.905-3.979-3.783-4.095-5.142-5.454C37.535,41.191,36.204,39.91,35.303,39.008z M43.953,45.953c-1.329-1.33-2.324-2.393-3.731-3.789c-1.406-1.397-2.99-2.888-4.231-4.121c-1.241-1.232-4.814-4.672-4.814-4.672s3.528,3.699,4.879,5.041c1.352,1.342,2.435,2.444,4.046,4.046c1.612,1.603,4.046,4.122,5.008,5.077c0.812,0.808,3.076,2.851,3.076,2.851l0.358-0.294C48.544,50.092,45.944,47.942,43.953,45.953z M17.169,20.713c1.156,1.238,8.468,7.983,9.52,9.109s5.77,5.523,5.77,5.523s-3.185-3.172-4.705-4.803c-1.521-1.627-7.312-6.692-9.132-8.641c-1.819-1.947-5.015-5.118-5.015-5.118l-0.284,0.224C13.323,17.008,16.013,19.474,17.169,20.713z M46.252,50.153c-0.883-0.937-1.767-1.663-1.767-1.663s1.04,1.351,1.533,1.792c0.327,0.293,0.697,0.662,0.912,0.88c0.086-0.036,0.178-0.079,0.276-0.13C47.013,50.892,46.706,50.632,46.252,50.153z M27.108,27.811c-0.011,0.004-0.021,0.008-0.031,0.012c0.484,0.44,0.814,0.736,0.814,0.736S27.577,28.259,27.108,27.811z M30.461,31.46c-0.014-0.089-0.018-0.178-0.015-0.267c-1.095-0.947-2.597-2.183-3.788-3.222c-0.05,0.016-0.099,0.032-0.148,0.045c0.457,0.413,0.828,0.738,1.056,0.924C28.252,29.499,29.351,30.444,30.461,31.46z M30.664,30.364c-0.994-1.018-2.012-2.058-2.815-2.872c-0.083,0.036-0.161,0.072-0.241,0.107c1.115,1.094,2.167,2.127,2.986,2.931C30.615,30.475,30.636,30.419,30.664,30.364z M18.227,14.969c-0.915-0.915-1.646-1.646-1.93-1.931l-0.009,0.008c0.273,0.306,0.974,1.088,1.828,2.008C18.153,15.024,18.189,14.997,18.227,14.969z M31.062,29.737c-0.348-0.361-0.65-0.673-0.819-0.842c-0.19-0.189-0.859-0.867-1.709-1.729c-0.037,0.018-0.073,0.035-0.11,0.053c0.739,0.752,1.667,1.707,2.559,2.626C31.009,29.81,31.034,29.773,31.062,29.737z M16.478,17.188c-0.921-0.931-1.774-1.793-2.181-2.208c-0.069,0.087-0.135,0.17-0.196,0.249c0.466,0.443,1.373,1.305,2.307,2.196C16.427,17.347,16.451,17.267,16.478,17.188z M17.284,15.84c-0.601-0.587-1.395-1.355-1.956-1.913l-0.272,0.25l-0.007,0.007c0.894,0.876,1.569,1.424,2.08,1.848C17.181,15.967,17.228,15.902,17.284,15.84z M16.343,17.915c-1.187-1.146-2.071-1.971-2.491-2.36c-0.049,0.064-0.092,0.121-0.129,0.172c0.464,0.445,1.484,1.425,2.649,2.551C16.35,18.158,16.34,18.036,16.343,17.915z M16.722,16.623c0.035-0.064,0.082-0.131,0.123-0.197c-0.854-0.775-1.693-1.527-2.118-1.946l-0.09,0.082c-0.018,0.023-0.035,0.043-0.053,0.065c0.409,0.396,1.224,1.169,2.123,2.029C16.712,16.645,16.716,16.635,16.722,16.623z"/>
<path d="M16.727,0c0,0,1.364,0.965,3.536,3.137l0,0C22.434,5.309,23.4,6.67,23.4,6.67v1.211L7.882,23.396H6.671l0,0c0,0-1.812-1.414-3.534-3.136l0,0C0.964,18.089,0,16.728,0,16.728v-1.213L15.516,0H16.727z"/>
<path fill="url(#svg-txplogo-grad4)" d="M16.522,0.65h-0.735L0.65,15.785v0.734c0,0,0.799,1.135,2.946,3.281c2.148,2.147,3.281,2.947,3.281,2.947h0.735L22.75,7.611V6.877c0,0-0.799-1.133-2.948-3.28C17.655,1.448,16.522,0.65,16.522,0.65z"/>
<path fill="url(#svg-txplogo-grad4)" d="M16.522,0.65h-0.735L0.65,15.785v0.734c0,0,0.799,1.135,2.946,3.281c2.148,2.147,3.281,2.947,3.281,2.947h0.735L22.75,7.611V6.877c0,0-0.799-1.133-2.948-3.28C17.655,1.448,16.522,0.65,16.522,0.65z"/>
<path fill="url(#svg-txplogo-grad5)" d="M22.193,7.414c0,0-4.251,4.526-7.251,7.525c-3,3-7.526,7.252-7.526,7.252s-1.659-0.866-3.5-2.708c-1.842-1.842-2.709-3.5-2.709-3.5s4.252-4.525,7.252-7.526c3-2.999,7.526-7.25,7.526-7.25s1.596,0.929,3.438,2.77C21.264,5.818,22.193,7.414,22.193,7.414z"/>
<path fill="url(#svg-txplogo-grad6)" d="M7.415,22.191c0,0-1.659-0.866-3.5-2.708c-1.842-1.842-2.709-3.5-2.709-3.5L0.65,15.785v0.734c0,0,0.799,1.135,2.946,3.281c2.148,2.147,3.281,2.947,3.281,2.947h0.735L7.415,22.191z"/>
<path fill="url(#svg-txplogo-grad7)" d="M22.75,7.611V6.877c0,0-0.799-1.133-2.948-3.28c-2.147-2.148-3.28-2.946-3.28-2.946h-0.735l0.197,0.557c0,0,1.596,0.929,3.438,2.77c1.841,1.842,2.771,3.438,2.771,3.438L22.75,7.611z"/>
<g fill="#494949">
	<path d="M10.876,12.248L10.7,12.424l-0.143-0.144l0.503-0.503l0.143,0.143l-0.176,0.177l0.917,0.916l-0.151,0.15L10.876,12.248z"/>
	<path d="M11.803,12.046L11.1,11.738l0.16-0.159l0.429,0.198l-0.198-0.43l0.161-0.161l0.303,0.707l0.773,0.336l-0.161,0.162l-0.49-0.226l0.227,0.488l-0.161,0.161L11.803,12.046z"/>
	<path d="M11.737,11.103l0.228-0.229c0.083-0.082,0.164-0.124,0.271-0.122c0.106,0.002,0.19,0.053,0.316,0.18c0.093,0.093,0.148,0.162,0.17,0.257c0.027,0.109,0.002,0.219-0.11,0.331l-0.078,0.077l0.414,0.413l-0.151,0.15L11.737,11.103z M12.392,11.453l0.073-0.072c0.123-0.123,0.052-0.198-0.054-0.304c-0.099-0.101-0.181-0.182-0.3-0.063l-0.08,0.08L12.392,11.453z"/>
</g>
<g fill="#191919">
	<path d="M10.876,12.118L10.7,12.294l-0.143-0.143l0.503-0.504l0.143,0.145l-0.176,0.175l0.917,0.917l-0.151,0.152L10.876,12.118z"/>
	<path d="M11.803,11.915L11.1,11.609l0.16-0.161l0.429,0.198l-0.198-0.43l0.161-0.16l0.303,0.707l0.773,0.337l-0.161,0.16l-0.49-0.226l0.227,0.489l-0.161,0.16L11.803,11.915z"/>
	<path d="M11.737,10.972l0.228-0.228c0.083-0.083,0.164-0.125,0.271-0.122c0.106,0.003,0.19,0.054,0.316,0.179c0.093,0.093,0.148,0.163,0.17,0.258c0.027,0.11,0.002,0.218-0.11,0.33l-0.078,0.077l0.414,0.413l-0.151,0.152L11.737,10.972z M12.392,11.324l0.073-0.074c0.123-0.122,0.052-0.198-0.054-0.304c-0.099-0.099-0.181-0.182-0.3-0.062l-0.08,0.078L12.392,11.324z"/>
</g>
<g fill="#2d2d2d">
	<path d="M10.876,12.183L10.7,12.359l-0.143-0.145l0.503-0.502l0.143,0.143l-0.176,0.176l0.917,0.917l-0.151,0.149L10.876,12.183z"/>
	<path d="M11.803,11.98L11.1,11.674l0.16-0.159l0.429,0.198l-0.198-0.43l0.161-0.161l0.303,0.707l0.773,0.337l-0.161,0.161l-0.49-0.225l0.227,0.487l-0.161,0.161L11.803,11.98z"/>
	<path d="M11.737,11.038l0.228-0.229c0.083-0.082,0.164-0.124,0.271-0.122c0.106,0.002,0.19,0.053,0.316,0.18c0.093,0.093,0.148,0.163,0.17,0.258c0.027,0.109,0.002,0.218-0.11,0.33l-0.078,0.077l0.414,0.413l-0.151,0.15L11.737,11.038z M12.392,11.389l0.073-0.072c0.123-0.123,0.052-0.198-0.054-0.304c-0.099-0.101-0.181-0.182-0.3-0.064l-0.08,0.08L12.392,11.389z"/>
</g>
<path d="M5.167,49.281L5.167,49.281c-1.436-1.437-2.561-3.223-2.561-3.223l1.399-1.398c0,0,1.468-0.401,2.358-1.291l0,0l28.9-28.902c1.839-1.839,3.762-5.893,3.762-5.893l5.082-5.081l1.323-0.896L52,9.168l-0.898,1.324l-5.079,5.078c0,0-4.051,1.924-5.891,3.763l0,0L11.231,48.235c-0.89,0.89-1.293,2.357-1.293,2.357L8.533,52C8.533,52,6.603,50.717,5.167,49.281z"/>
<path fill="url(#svg-txplogo-grad8)" d="M44.526,3.996L44.526,3.996l-4.898,4.897c0,0-1.154,5.056-3.017,6.919l-0.981,0.981l2.173,2.174l0.981-0.982c1.863-1.862,6.92-3.016,6.92-3.016l4.898-4.896l0,0L44.526,3.996z"/>
<path fill="#616161" d="M37.804,18.968l0.887,0.888l0.982-0.981c1.862-1.863,6.032-3.904,6.032-3.904s-5.057,1.153-6.92,3.017L37.804,18.968z"/>
<path fill="#ebe9e9" d="M34.743,15.907l0.887,0.887l0.981-0.98c1.862-1.864,3.017-6.92,3.017-6.92s-2.042,4.169-3.904,6.032L34.743,15.907z"/>
<path fill="#ffcc33" d="M35.695,16.729L7.71,44.716c-1.064,1.065-2.306,1.597-2.306,1.597l2.882,2.883h0c0,0,0.533-1.241,1.598-2.306l27.985-27.987L35.695,16.729z"/>
<path fill="#bfbfbf" d="M3.452,46.135c0,0,1.192,1.705,2.175,2.688c0.982,0.982,2.837,2.325,2.837,2.325L3.452,46.135z"/>
<polygon fill="#ebe9e9" points="50.604,10.073 51.162,9.248 45.351,3.438 44.526,3.996"/>
<g fill="#ba9c0a">
	<path d="M10.049,44.076L9.916,44.21l-0.108-0.109l0.382-0.383l0.109,0.109l-0.133,0.134l0.695,0.694l-0.116,0.115L10.049,44.076z"/>
	<path d="M10.308,43.6l0.343-0.343l0.108,0.108l-0.228,0.229l0.236,0.235l0.199-0.199l0.108,0.109l-0.2,0.197l0.236,0.236l0.228-0.229l0.115,0.116l-0.343,0.343L10.308,43.6z"/>
	<path d="M11.282,43.392l-0.533-0.233l0.123-0.122l0.326,0.151l-0.151-0.327l0.122-0.122l0.229,0.537l0.588,0.256l-0.123,0.122l-0.372-0.17l0.171,0.369l-0.123,0.123L11.282,43.392z"/>
	<path d="M11.485,42.641l-0.134,0.133l-0.108-0.107l0.382-0.382l0.108,0.107L11.6,42.524l0.695,0.695l-0.114,0.115L11.485,42.641z"/>
	<path d="M11.743,42.166l0.173-0.175c0.063-0.062,0.124-0.095,0.206-0.093c0.081,0.002,0.145,0.041,0.241,0.137c0.069,0.07,0.112,0.123,0.128,0.195c0.021,0.084,0.001,0.166-0.084,0.251l-0.058,0.059l0.314,0.313l-0.115,0.115L11.743,42.166z M12.241,42.431l0.055-0.055c0.094-0.094,0.04-0.149-0.041-0.23c-0.075-0.075-0.137-0.138-0.228-0.047l-0.061,0.06L12.241,42.431z"/>
	<path d="M12.356,41.551l0.096-0.095l0.984,0.625l-0.116,0.114l-0.207-0.139l-0.156,0.158l0.139,0.206l-0.116,0.114L12.356,41.551z M12.637,41.735l-0.002,0.001l0.234,0.348l0.116-0.114L12.637,41.735z"/>
	<path d="M12.877,41.246l-0.133,0.133l-0.108-0.107l0.382-0.382l0.108,0.108l-0.133,0.133l0.695,0.695l-0.115,0.116L12.877,41.246z"/>
	<path d="M13.321,40.805l-0.133,0.134l-0.109-0.109l0.382-0.383l0.109,0.109l-0.133,0.134l0.695,0.694L14.017,41.5L13.321,40.805z"/>
	<path d="M13.58,40.328l0.343-0.343l0.108,0.108l-0.228,0.229l0.236,0.236l0.198-0.2l0.109,0.109l-0.199,0.198l0.235,0.236l0.229-0.229l0.116,0.115l-0.344,0.344L13.58,40.328z"/>
	<path d="M14.065,39.842l0.185-0.185c0.137-0.136,0.284-0.121,0.439,0.032c0.093,0.094,0.135,0.187,0.102,0.301l0.491,0.243l-0.122,0.123l-0.451-0.237l-0.068,0.069l0.343,0.343l-0.115,0.116L14.065,39.842z M14.54,40.087l0.066-0.066c0.08-0.079,0.047-0.138-0.033-0.218c-0.082-0.082-0.14-0.112-0.224-0.027l-0.061,0.061L14.54,40.087z"/>
	<path d="M14.61,39.299l0.111-0.11l0.659,0.311l0.002-0.002l-0.484-0.485l0.115-0.114l0.804,0.804l-0.108,0.107l-0.66-0.307l-0.002,0.003l0.483,0.483l-0.116,0.114L14.61,39.299z"/>
</g>
<g fill="#ecd74c">
	<path d="M10.049,44.181l-0.133,0.133l-0.108-0.107l0.382-0.383l0.109,0.108l-0.133,0.134l0.695,0.694l-0.116,0.116L10.049,44.181z"/>
	<path d="M10.308,43.705l0.343-0.344l0.108,0.109l-0.228,0.228l0.236,0.236l0.199-0.198l0.108,0.107l-0.2,0.199l0.236,0.235l0.228-0.228l0.115,0.116l-0.343,0.342L10.308,43.705z"/>
	<path d="M11.282,43.496l-0.533-0.232l0.123-0.122l0.326,0.151l-0.151-0.327l0.122-0.122l0.229,0.537l0.588,0.254l-0.123,0.123l-0.372-0.172l0.171,0.371l-0.123,0.122L11.282,43.496z"/>
	<path d="M11.485,42.745l-0.134,0.134l-0.108-0.109l0.382-0.381l0.108,0.108L11.6,42.631l0.695,0.694l-0.114,0.116L11.485,42.745z"/>
	<path d="M11.743,42.27l0.173-0.173c0.063-0.063,0.124-0.095,0.206-0.093c0.081,0.002,0.145,0.04,0.241,0.137c0.069,0.069,0.112,0.123,0.128,0.195c0.021,0.084,0.001,0.166-0.084,0.25l-0.058,0.06l0.314,0.313l-0.115,0.115L11.743,42.27z M12.241,42.536l0.055-0.055c0.094-0.094,0.04-0.15-0.041-0.23c-0.075-0.075-0.137-0.138-0.228-0.047l-0.061,0.06L12.241,42.536z"/>
	<path d="M12.356,41.656l0.096-0.097l0.984,0.625l-0.116,0.116l-0.207-0.139l-0.156,0.156l0.139,0.207l-0.116,0.115L12.356,41.656z M12.637,41.839l-0.002,0.003l0.234,0.348l0.116-0.115L12.637,41.839z"/>
	<path d="M12.877,41.352l-0.133,0.133l-0.108-0.109l0.382-0.38l0.108,0.108l-0.133,0.132l0.695,0.696l-0.115,0.116L12.877,41.352z"/>
	<path d="M13.321,40.909l-0.133,0.133l-0.109-0.107l0.382-0.383l0.109,0.108l-0.133,0.133l0.695,0.696l-0.116,0.114L13.321,40.909z"/>
	<path d="M13.58,40.434l0.343-0.344l0.108,0.109l-0.228,0.228l0.236,0.235l0.198-0.198l0.109,0.108l-0.199,0.199l0.235,0.236l0.229-0.229l0.116,0.115l-0.344,0.343L13.58,40.434z"/>
	<path d="M14.065,39.947l0.185-0.186c0.137-0.136,0.284-0.122,0.439,0.033c0.093,0.094,0.135,0.187,0.102,0.301l0.491,0.243l-0.122,0.122l-0.451-0.235l-0.068,0.068l0.343,0.343l-0.115,0.116L14.065,39.947z M14.54,40.191l0.066-0.065c0.08-0.08,0.047-0.138-0.033-0.218c-0.082-0.082-0.14-0.112-0.224-0.027l-0.061,0.061L14.54,40.191z"/>
	<path d="M14.61,39.404l0.111-0.111l0.659,0.311l0.002-0.003l-0.484-0.484l0.115-0.113l0.804,0.802l-0.108,0.109l-0.66-0.308l-0.002,0.002l0.483,0.483l-0.116,0.116L14.61,39.404z"/>
</g>
<g fill="#fcc332">
	<path d="M10.049,44.129l-0.133,0.132l-0.108-0.108l0.382-0.381l0.109,0.108l-0.133,0.133l0.695,0.695l-0.116,0.115L10.049,44.129z"/>
	<path d="M10.308,43.652l0.343-0.343l0.108,0.107l-0.228,0.229l0.236,0.236l0.199-0.199l0.108,0.109l-0.2,0.198l0.236,0.236l0.228-0.228l0.115,0.114l-0.341,0.344L10.308,43.652z"/>
	<path d="M11.282,43.443l-0.533-0.232l0.123-0.122l0.326,0.151l-0.151-0.326l0.122-0.122l0.229,0.536l0.588,0.256l-0.123,0.122l-0.372-0.171l0.171,0.371l-0.123,0.122L11.282,43.443z"/>
	<path d="M11.485,42.691l-0.134,0.134l-0.108-0.108l0.382-0.381l0.108,0.107L11.6,42.578l0.695,0.695l-0.114,0.114L11.485,42.691z"/>
	<path d="M11.743,42.218l0.173-0.173c0.063-0.064,0.124-0.096,0.206-0.094c0.081,0.002,0.145,0.04,0.241,0.137c0.069,0.07,0.112,0.122,0.128,0.194c0.021,0.084,0.001,0.167-0.084,0.252l-0.058,0.059l0.314,0.313l-0.115,0.114L11.743,42.218z M12.241,42.484l0.055-0.056c0.094-0.095,0.04-0.15-0.041-0.23c-0.075-0.076-0.137-0.139-0.228-0.048l-0.061,0.061L12.241,42.484z"/>
	<path d="M12.356,41.604l0.096-0.097l0.984,0.625l-0.116,0.116l-0.207-0.14l-0.156,0.156l0.139,0.207l-0.116,0.116L12.356,41.604z M12.637,41.787l-0.002,0.003l0.234,0.348l0.116-0.115L12.637,41.787z"/>
	<path d="M12.877,41.298l-0.133,0.134l-0.108-0.108l0.382-0.381l0.108,0.108l-0.133,0.133l0.695,0.696l-0.115,0.115L12.877,41.298z"/>
	<path d="M13.321,40.856l-0.133,0.134l-0.109-0.109l0.382-0.381l0.109,0.107l-0.133,0.134l0.695,0.694l-0.116,0.116L13.321,40.856z"/>
	<path d="M13.58,40.381l0.343-0.344l0.108,0.108l-0.228,0.229l0.236,0.235l0.198-0.199l0.109,0.109l-0.199,0.198l0.235,0.236l0.229-0.228l0.116,0.114l-0.344,0.343L13.58,40.381z"/>
	<path d="M14.065,39.896l0.185-0.186c0.137-0.137,0.284-0.123,0.439,0.033c0.093,0.093,0.135,0.187,0.102,0.3l0.491,0.243l-0.122,0.123l-0.451-0.235l-0.068,0.067l0.343,0.344L14.87,40.7L14.065,39.896z M14.54,40.139l0.066-0.064c0.08-0.081,0.047-0.139-0.033-0.219c-0.082-0.081-0.14-0.111-0.224-0.027l-0.061,0.061L14.54,40.139z"/>
	<path d="M14.61,39.352l0.111-0.111l0.659,0.312l0.002-0.002l-0.484-0.485l0.115-0.115l0.804,0.804l-0.108,0.108l-0.66-0.307l-0.002,0.002l0.483,0.483l-0.116,0.115L14.61,39.352z"/>
</g>
<rect fill="#3d2812" x="7.747" y="49.42" transform="matrix(0.7071 -0.7071 0.7071 0.7071 -33.0248 20.6168)" width="1.255" height="1.506"/>
<rect fill="#e2d9ac" x="3.676" y="45.597" transform="matrix(-0.7069 -0.7073 0.7073 -0.7069 -25.1348 82.0356)" width="1.505" height="1.256"/>
<rect fill="#fcc332" x="5.772" y="46.161" transform="matrix(-0.7069 0.7073 -0.7073 -0.7069 45.0143 77.7447)" width="1.255" height="4.076"/>
<path fill="#473015" d="M38.756,19.789l-0.887-0.886L9.884,46.89c-1.064,1.064-1.598,2.306-1.598,2.306l1.065,1.066c0,0,0.355-1.42,1.42-2.485L38.756,19.789z"/>
<path fill="#ede5b2" d="M34.808,15.843L6.823,43.829c-1.064,1.065-2.484,1.42-2.484,1.42l1.064,1.064c0,0,1.243-0.53,2.308-1.597l27.984-27.988L34.808,15.843z"/>
<path d="M93.524,42v-1.846c0,0-1.645-0.526-2.36-0.703C90.525,39.292,89.726,39.112,89,39V13h7l2.25,6H100c0.096-0.6,0.187-1.244,0.25-2c0.064-0.756,0.203-1.965,0.25-2.75s0.119-0.994,0.15-1.75c0.032-0.759,0.1-1.251,0.1-1.847V10h-28.5v0.653c0,0.596,0.068,1.088,0.1,1.847c0.031,0.756,0.103,0.965,0.15,1.75s0.186,1.994,0.25,2.75c0.063,0.756,0.154,1.4,0.25,2h1.75L77,13h7v26c-0.726,0.112-1.525,0.292-2.165,0.451c-0.715,0.177-2.36,0.703-2.36,0.703V42H93.524z"/>
<path d="M117.955,20.625c-0.896-0.669-1.934-1.155-3.084-1.444c-1.134-0.286-2.3-0.431-3.464-0.431c-3.606,0-6.44,1.028-8.424,3.056c-1.979,2.021-2.982,4.988-2.982,8.819c0,1.793,0.262,3.431,0.778,4.867c0.519,1.447,1.292,2.711,2.3,3.753c1.01,1.046,2.289,1.859,3.799,2.418c1.501,0.555,3.256,0.837,5.214,0.837c0.901,0,1.801-0.1,2.672-0.294c0.871-0.197,1.684-0.465,2.417-0.795c0.739-0.332,1.405-0.732,1.981-1.189c0.588-0.468,1.029-0.977,1.311-1.514l0.106-0.204l-1.062-1.094l-0.243,0.193c-0.547,0.439-1.393,0.804-2.515,1.083c-1.142,0.287-2.283,0.432-3.394,0.432c-1.352,0-2.542-0.221-3.536-0.656c-0.993-0.432-1.826-1.033-2.477-1.785c-0.654-0.757-1.152-1.661-1.48-2.688c-0.301-0.941-0.468-1.913-0.495-2.989h15.214l0.057-0.308c0.133-0.602,0.226-1.17,0.276-1.69c0.049-0.522,0.075-1.045,0.075-1.551c0-1.629-0.283-3.02-0.842-4.132C119.599,22.206,118.857,21.3,117.955,20.625z M111.111,21.25c1.534,0,2.625,0.482,3.336,1.474c0.729,1.016,1.098,2.412,1.098,4.149c0,0.219-0.046,0.974-0.063,1.127h-9.937c0.209-2.482,0.757-4.242,1.631-5.23C108.083,21.746,109.369,21.25,111.111,21.25z"/>
<path d="M268.955,20.625c-0.896-0.669-1.935-1.155-3.084-1.444c-1.135-0.286-2.301-0.431-3.465-0.431c-3.606,0-6.44,1.028-8.424,3.056c-1.979,2.021-2.982,4.988-2.982,8.819c0,1.793,0.262,3.431,0.778,4.867c0.519,1.447,1.292,2.711,2.3,3.753c1.01,1.046,2.289,1.859,3.8,2.418c1.501,0.555,3.256,0.837,5.214,0.837c0.902,0,1.801-0.1,2.672-0.294c0.871-0.197,1.685-0.465,2.418-0.795c0.738-0.332,1.405-0.732,1.981-1.189c0.588-0.468,1.028-0.977,1.312-1.514l0.105-0.204l-1.062-1.094l-0.242,0.193c-0.547,0.439-1.394,0.804-2.516,1.083c-1.142,0.287-2.283,0.432-3.395,0.432c-1.352,0-2.541-0.221-3.535-0.656c-0.994-0.432-1.826-1.033-2.477-1.785c-0.654-0.757-1.152-1.661-1.48-2.688c-0.301-0.941-0.468-1.913-0.494-2.989h15.214l0.057-0.308c0.134-0.602,0.226-1.17,0.276-1.69c0.049-0.522,0.074-1.045,0.074-1.551c0-1.629-0.283-3.02-0.842-4.132C270.6,22.206,269.857,21.3,268.955,20.625z M262.111,21.25c1.533,0,2.625,0.482,3.336,1.474c0.729,1.016,1.099,2.412,1.099,4.149c0,0.219-0.046,0.974-0.063,1.127h-9.937c0.209-2.482,0.757-4.242,1.631-5.23C259.082,21.746,260.369,21.25,262.111,21.25z"/>
<path d="M122,42h8.65v-1.65c-0.38-0.212-0.933-0.494-1.313-0.675c-0.261-0.124-0.542-0.244-0.837-0.356l4.727-6.607l4.683,6.605c-0.251,0.098-0.502,0.211-0.753,0.341c-0.376,0.194-0.967,0.452-1.406,0.692V42H146v-1.65c-0.391-0.249-0.963-0.536-1.401-0.706c-0.396-0.154-0.798-0.301-1.208-0.442l-7.181-9.5l6.188-7.85c1.132-0.327,2.152-0.81,2.75-1.201V19h-8.5v1.65c0.462,0.359,1.298,0.786,2.187,1.089l-4.254,5.973l-4.336-5.97c0.289-0.101,0.561-0.22,0.813-0.356c0.372-0.201,0.919-0.499,1.29-0.735V19h-10.1v1.65c0.387,0.246,0.953,0.577,1.321,0.744c0.34,0.156,0.721,0.307,1.133,0.45l6.802,8.744l-6.745,8.599c-0.865,0.219-1.901,0.663-2.761,1.162V42z"/>
<path d="M147,22h4v13.796c0,2.324,0.383,4.041,1.451,5.104c1.069,1.062,2.626,1.601,4.628,1.601c0.76,0,1.515-0.094,2.243-0.277c0.718-0.181,1.391-0.411,2-0.686c0.604-0.272,1.151-0.564,1.626-0.868c0.482-0.307,1.303-1.061,1.303-1.061l-0.569-1.128c0,0-1.569,0.427-2.403,0.497c-0.851,0.073-1.569,0.11-2.133,0.11c-1.124,0-1.847-0.322-2.395-0.986c-0.556-0.674-0.75-1.869-0.75-3.554V22h7v-3h-7v-6h-1.707l-0.132,0.027c-0.578,0.242-1.198,0.477-1.734,0.779c-0.531,0.3-1.427,0.963-1.427,0.963v3.98c-1.282,0.32-2.836,0.797-4,1.5V22z"/>
<path d="M215,22h4v13.796c0,2.324,0.383,4.041,1.451,5.104c1.068,1.062,2.626,1.601,4.628,1.601c0.76,0,1.515-0.094,2.243-0.277c0.717-0.181,1.391-0.411,1.999-0.686c0.604-0.272,1.151-0.564,1.626-0.868c0.482-0.307,1.303-1.061,1.303-1.061l-0.569-1.128c0,0-1.569,0.427-2.403,0.497c-0.852,0.073-1.568,0.11-2.133,0.11c-1.124,0-1.848-0.322-2.395-0.986c-0.556-0.674-0.75-1.869-0.75-3.554V22h7v-3h-7v-6h-1.707l-0.131,0.027c-0.578,0.242-1.199,0.477-1.734,0.779c-0.531,0.3-1.428,0.963-1.428,0.963V18.7c-1.281,0.32-2.836,0.847-4,1.55V22z"/>
<path d="M233,22h4v13.796c0,2.324,0.383,4.041,1.451,5.104c1.068,1.062,2.626,1.601,4.628,1.601c0.76,0,1.515-0.094,2.243-0.277c0.717-0.181,1.391-0.411,1.999-0.686c0.604-0.272,1.151-0.564,1.626-0.868c0.482-0.307,1.303-1.061,1.303-1.061l-0.569-1.128c0,0-1.569,0.427-2.403,0.497c-0.852,0.073-1.568,0.11-2.133,0.11c-1.124,0-1.848-0.322-2.395-0.986c-0.556-0.674-0.75-1.869-0.75-3.554V22h7v-3h-7v-6h-1.707l-0.131,0.027c-0.578,0.242-1.199,0.477-1.734,0.779c-0.531,0.3-1.428,0.963-1.428,0.963V18.7c-1.281,0.32-2.836,0.847-4,1.55V22z"/>
<path d="M177,49.35c-0.586-0.337-1.224-0.63-1.75-0.8c-0.429-0.139-0.818-0.232-1.25-0.3v-6.398c0.639,0.243,1.197,0.422,1.752,0.533c0.682,0.138,1.629,0.208,2.818,0.208c1.71,0,3.293-0.294,4.703-0.875c1.414-0.579,2.635-1.42,3.629-2.494c0.992-1.071,1.766-2.404,2.301-3.963C189.736,33.712,190,31.905,190,30c0-4.028-0.805-6.938-2.404-8.751c-1.609-1.824-3.895-2.749-6.795-2.749c-1.901,0-3.471,0.482-4.664,1.435c-0.865,0.691-1.553,1.561-2.137,2.591V18.5l-1.602,0.003c-1.025,0.152-2.082,0.357-3.139,0.61c-1.073,0.257-2.135,0.601-3.158,1.021L166,20.219v1.679l3,0.357V48.25c-0.952,0.241-2,0.656-3,1.1V51h11V49.35z M184.797,30.055c0,1.454-0.156,2.803-0.465,4.01c-0.307,1.197-0.748,2.257-1.312,3.146c-0.555,0.877-1.238,1.563-2.029,2.042c-0.783,0.473-1.678,0.713-2.658,0.713c-1.111,0-2.021-0.08-2.705-0.237c-0.609-0.141-1.127-0.346-1.627-0.611V26.829c0.365-1.524,0.945-2.738,1.807-3.607c0.852-0.856,2.021-1.29,3.475-1.29c1.016,0,1.881,0.196,2.572,0.585c0.691,0.388,1.258,0.944,1.686,1.65c0.436,0.724,0.758,1.59,0.955,2.577C184.695,27.746,184.797,28.859,184.797,30.055z"/>
<path d="M215.5,39.25l-3.5-0.5V26.085c0-0.838-0.03-1.689-0.2-2.531c-0.175-0.866-0.44-1.667-1.001-2.381c-0.562-0.717-1.388-1.307-2.451-1.756c-1.054-0.442-2.465-0.667-4.198-0.667c-1.911,0-3.674,0.197-5.241,0.585c-1.566,0.388-3.01,0.932-4.291,1.617l-0.188,0.102l0.015,0.204c0.066,0.923,0.229,1.877,0.482,2.833c0.251,0.949,0.548,1.879,0.882,2.764l0.08,0.215h1.764l2.371-5.358c0.488-0.165,0.989-0.269,1.488-0.308c0.572-0.042,1.09-0.064,1.543-0.064c0.92,0,1.67,0.182,2.225,0.54c0.555,0.357,0.981,0.874,1.271,1.531c0.299,0.683,0.402,1.521,0.449,2.491v3.094c-2.207,0.115-4.201,0.282-5.883,0.492c-1.783,0.224-3.306,0.596-4.527,1.105c-1.25,0.523-2.213,1.253-2.86,2.165c-0.649,0.918-0.979,2.099-0.979,3.51c0,1.854,0.684,3.373,2.031,4.519c1.337,1.138,3.08,1.714,5.185,1.714c1.097,0,2.093-0.154,2.958-0.461c0.859-0.305,1.621-0.707,2.262-1.197c0.645-0.492,1.174-1.063,1.572-1.696c0.168-0.263,0.314-0.529,0.438-0.794c0.027,0.54,0.061,1.053,0.102,1.534c0.069,0.844,0.281,1.632,0.629,2.339L208,42.412l1.537-0.005c0.938-0.147,1.933-0.374,2.957-0.671c1.021-0.296,2.158-0.695,3.006-1.086V39.25z M205.503,37.714c-0.402,0.383-0.909,0.72-1.502,0.996c-0.582,0.271-1.269,0.407-2.044,0.407c-1.18,0-2.078-0.308-2.748-0.941c-0.66-0.625-0.994-1.532-0.994-2.701c0-0.688,0.125-1.304,0.369-1.831c0.234-0.505,0.673-0.936,1.302-1.282c0.659-0.359,1.591-0.629,2.772-0.798c1.131-0.163,2.594-0.251,4.342-0.26v4.25c-0.094,0.263-0.266,0.588-0.503,0.967C206.245,36.923,205.91,37.324,205.503,37.714z"/>
<path d="M286.75,40.35c-0.652-0.334-1.436-0.651-2.083-0.817c-0.548-0.141-1.121-0.218-1.667-0.282V26.485c0.386-0.981,0.846-1.735,1.324-2.238c0.459-0.479,0.844-1.075,1.146-1.247H292v-1.202l-0.016-0.099c-0.159-0.506-0.327-0.988-0.502-1.45c-0.178-0.469-0.385-0.905-0.613-1.303l-0.082-0.144l-0.165-0.017c-0.89-0.092-1.767-0.007-2.61,0.255c-0.832,0.259-1.609,0.638-2.309,1.123c-0.695,0.482-1.319,1.033-1.854,1.639c-0.318,0.358-0.615,0.721-0.85,1.083V18.75h-1.5c-0.988,0.149-2.064,0.389-3.13,0.638c-1.084,0.254-2.352,0.696-3.37,1.112V22l3,0.5v16.75c-0.427,0.104-0.734,0.227-1.16,0.352c-0.523,0.153-1.259,0.446-1.84,0.748V42h11.75V40.35z"/>
<path d="M320,40.35c-0.809-0.483-1.8-0.882-3-1.1V28.345c0-1.847-0.289-3.4-0.65-4.616c-0.367-1.235-0.99-2.237-1.697-2.979c-0.715-0.746-1.617-1.272-2.685-1.568c-1.038-0.286-2.229-0.432-3.538-0.432c-1.867,0-3.486,0.513-4.809,1.524c-0.98,0.749-1.981,1.617-2.621,2.593V18.75h-1.5c-1.199,0.208-2.266,0.452-3.354,0.716c-1.104,0.268-2.303,0.707-3.146,1.034V22l3,0.5v16.75c-1.223,0.311-2.232,0.734-3,1.1V42h11v-1.65c-0.877-0.498-2.064-0.903-3-1.1V26.681c0.213-0.572,0.688-1.132,1.049-1.666c0.367-0.547,0.811-1.044,1.316-1.479c0.5-0.431,1.084-0.774,1.735-1.024c0.649-0.249,1.364-0.375,2.123-0.375c1.749,0,2.975,0.579,3.626,1.771c0.679,1.242,1.15,2.973,1.15,5.143V39.25c-0.949,0.283-2.182,0.712-3,1.1V42h11V40.35z"/>
</svg>
