<?xml version="1.0" encoding="utf-8"?>
<!DOCTYPE svg>
<svg version="1.1" baseProfile="full" xmlns="http://www.w3.org/2000/svg" xmlns:xlink="http://www.w3.org/1999/xlink" x="0px" y="0px" width="208px" height="34px" viewBox="0 0 208 34" enable-background="new 0 0 208 34" xml:space="preserve">
<linearGradient id="svg-txplogo-grad1" gradientUnits="userSpaceOnUse" x1="120.0361" y1="-45.2729" x2="123.7719" y2="-41.5372" gradientTransform="matrix(1 0 0 -1 -101 -22.5)">
	<stop offset="0.125" style="stop-color:#7b6c35"/>
	<stop offset="0.875" style="stop-color:#b9aa69"/>
</linearGradient>
<linearGradient id="svg-txplogo-grad2" gradientUnits="userSpaceOnUse" x1="120.0322" y1="-45.2695" x2="123.7059" y2="-41.5959" gradientTransform="matrix(1 0 0 -1 -101 -22.5)">
	<stop offset="0" style="stop-color:#2b2414"/>
	<stop offset="0.75" style="stop-color:#624e22"/>
</linearGradient>
<linearGradient id="svg-txplogo-grad3" gradientUnits="userSpaceOnUse" x1="122.9609" y1="-42.3296" x2="120.3922" y2="-44.8984" gradientTransform="matrix(1 0 0 -1 -101 -22.5)">
	<stop offset="0.5" style="stop-color:#2d2400"/>
	<stop offset="0.875" style="stop-color:#211700"/>
</linearGradient>
<linearGradient id="svg-txplogo-grad4" gradientUnits="userSpaceOnUse" x1="106.375" y1="-27.8716" x2="110.927" y2="-32.4236" gradientTransform="matrix(1 0 0 -1 -101 -22.5)">
	<stop offset="0" style="stop-color:#ffffff"/>
	<stop offset="1" style="stop-color:#666666"/>
</linearGradient>
<linearGradient id="svg-txplogo-grad5" gradientUnits="userSpaceOnUse" x1="103.5601" y1="-35.2388" x2="113.6999" y2="-25.099" gradientTransform="matrix(1 0 0 -1 -101 -22.5)">
	<stop offset="0" style="stop-color:#0a0a0a"/>
	<stop offset="0.5" style="stop-color:#0f0f0f"/>
	<stop offset="1" style="stop-color:#1a1a1a"/>
</linearGradient>
<linearGradient id="svg-txplogo-grad6" gradientUnits="userSpaceOnUse" x1="101.3101" y1="-32.936" x2="105.8621" y2="-37.488" gradientTransform="matrix(1 0 0 -1 -101 -22.5)">
	<stop offset="0" style="stop-color:#999999"/>
	<stop offset="1" style="stop-color:#1a1a1a"/>
</linearGradient>
<linearGradient id="svg-txplogo-grad7" gradientUnits="userSpaceOnUse" x1="111.4395" y1="-22.8071" x2="115.9915" y2="-27.3591" gradientTransform="matrix(1 0 0 -1 -101 -22.5)">
	<stop offset="0" style="stop-color:#cccccc"/>
	<stop offset="1" style="stop-color:#333333"/>
</linearGradient>
<linearGradient id="svg-txplogo-grad8" gradientUnits="userSpaceOnUse" x1="124.2969" y1="-30.0078" x2="134.0869" y2="-30.0078" gradientTransform="matrix(1 0 0 -1 -101 -22.5)">
	<stop offset="0.125" style="stop-color:#cdcdcb"/>
	<stop offset="0.875" style="stop-color:#a09ea1"/>
</linearGradient>
<path d="M32.562,32.566c-1.183,1.183-2.415,1.74-2.898,1.256c-0.18-0.18,0,0,0,0c-0.086-0.086-3.175-3.493-6.685-7.004l0,0c-3.179-3.179-6.906-6.405-9.203-8.702c-2.295-2.295-6.111-6.58-6.115-6.583l0,0l-0.256-0.288l1.851-2.012l1.987-1.824l0.287,0.256c0.004,0.003,4.291,3.82,6.584,6.113c2.298,2.297,5.521,6.025,8.701,9.206l0,0c3.51,3.51,6.878,6.558,7.032,6.711C34.259,30.108,33.809,31.319,32.562,32.566z"/>
<path fill="url(#svg-txplogo-grad1)" d="M17.812,14.079c-2.278-2.277-6.565-6.097-6.565-6.097L9.542,9.547L7.978,11.25c0,0,3.82,4.288,6.098,6.565c2.278,2.278,6.01,5.51,9.204,8.702c3.51,3.512,6.628,6.949,6.683,7.004s0.713,0.331,2.299-1.256c1.586-1.585,1.308-2.247,1.27-2.283c-0.036-0.037-3.507-3.187-7.019-6.699C23.32,20.089,20.09,16.357,17.812,14.079z"/>
<path fill="url(#svg-txplogo-grad2)" d="M31.935,32.578c-0.108-0.014-0.225-0.104-0.369-0.246c-0.161-0.162-3.426-3.479-6.938-6.99c-1.304-1.305-3.883-3.682-4.243-3.999c-0.63-0.556-0.573-1.12-0.239-1.667c0.339-0.558,1.164-1.241,1.72-1.289c-0.538-0.584-1.06-1.15-1.562-1.691c-1.533,0.852-3.294,1.876-3.553,1.616c-1.227-1.228-4.33-4.329-5.643-5.639c-0.577-0.576-0.499-1.195-0.173-1.804c0.356-0.666,1.267-1.396,1.808-1.542l0,0c-0.883-0.801-1.495-1.345-1.495-1.345L9.543,9.547l-1.564,1.704c0,0,3.82,4.288,6.098,6.565c2.277,2.277,6.009,5.509,9.203,8.701c3.51,3.512,6.628,6.949,6.683,7.004C30.014,33.572,30.585,33.812,31.935,32.578z"/>
<path fill="#6b5600" d="M25.725,23.86c0,0-0.44-0.531-0.968-1.06c-0.528-0.528-1.109-1.07-1.109-1.07s0.643,0.729,0.986,1.073C24.978,23.146,25.725,23.86,25.725,23.86z M17.708,15.521c-0.502-0.503-1.32-1.32-1.32-1.32s0.757,0.967,1.215,1.425S18.21,16.021,17.708,15.521z M16.572,17.502c-0.807-0.807-2.112-2.042-4.219-4.148c-1.631-1.632-2.935-2.849-3.343-3.228l-0.095,0.104c0.566,0.541,2.998,2.874,4.332,4.209c1.516,1.515,4.091,3.926,4.776,4.484c0.687,0.559,2.006,1.707,3.012,2.715c1.005,1.006,2.063,1.938,2.063,1.938s-1.721-1.771-2.479-2.53C19.862,20.287,17.505,18.437,16.572,17.502z M16.069,13.938c0,0-1.056-1.056-2.649-2.649c-1.219-1.219-2.436-2.436-2.764-2.764L10.65,8.53c0.325,0.363,1.566,1.749,2.682,2.864C14.625,12.688,16.069,13.938,16.069,13.938z M12.825,12.028c0.211,0.211,0.788,0.773,1.21,1.197c0.422,0.422,1.308,1.383,1.528,1.602c0.878,0.88,1.483,1.425,2.521,2.464c1.039,1.04,3.592,3.694,4.103,4.207c0.864,0.863,2.051,2.105,2.658,2.714c0.607,0.608,1.98,1.923,2.676,2.619c0.695,0.695,1.62,1.588,2.235,2.203c0.616,0.618,2.285,2.032,2.285,2.032s-2.655-2.615-3.604-3.566c-0.951-0.951-2.157-2.02-2.747-2.609c-0.822-0.823-2.173-2.272-2.87-2.969c-0.695-0.694-0.906-0.819-1.056-0.969c-0.148-0.149-1.602-1.673-1.989-2.06c-0.386-0.386-3.776-3.831-4.401-4.455c-0.624-0.625-1.284-1.267-1.548-1.531c-0.264-0.264-0.723-0.809-1.004-1.092c-0.282-0.28-0.758-0.703-1.092-1.038c-0.316-0.316-1.176-1.144-1.707-1.672L9.84,9.274c0.906,0.888,1.473,1.265,1.818,1.609C12.02,11.244,12.614,11.815,12.825,12.028z M14.892,15.593c0.646,0.646,3.345,3.081,3.345,3.081s-1.846-1.761-2.78-2.695c-0.934-0.933-2.082-2.132-3.199-3.249c-0.932-0.933-2.45-2.467-2.927-2.951L9.19,9.931c0.629,0.597,2.691,2.556,3.291,3.156C13.191,13.797,14.245,14.946,14.892,15.593z M28.577,28.226c-0.669-0.669-1.329-1.255-1.919-1.846c-0.59-0.588-2.289-2.361-2.289-2.361s1.734,1.98,2.376,2.624c0.643,0.642,1.1,0.957,1.866,1.724c0.766,0.767,1.923,1.972,2.381,2.43c0.369,0.369,1.184,1.014,1.483,1.248c0.027-0.029,0.056-0.058,0.082-0.086c-0.381-0.332-1.584-1.39-2.116-1.92C29.809,29.403,29.245,28.894,28.577,28.226z M30.883,28.895c-0.414-0.413-1.584-1.588-1.831-1.835c-0.247-0.245-1.131-0.937-1.131-0.937s0.611,0.668,0.779,0.835c0.167,0.168,1.1,0.941,1.796,1.638c0.598,0.597,2.192,2.218,2.63,2.663c0.058-0.083,0.109-0.16,0.151-0.234C32.827,30.632,31.237,29.249,30.883,28.895z M14.211,13.974c-0.729-0.747-1.613-1.73-1.927-2.045c-0.723-0.721-2.146-1.957-2.656-2.461L9.542,9.547L9.531,9.561c0.521,0.504,2.082,1.975,3.061,2.953C13.224,13.146,14.211,13.974,14.211,13.974z M13.617,13.688c0.794,0.791,6.625,6.5,7.373,7.247c0.748,0.751,1.602,1.674,2.042,2.115c0.44,0.44,1.654,1.69,1.654,1.69s-1.637-1.851-2.587-2.801c-0.95-0.951-3.278-3.356-4.352-4.431C16.959,16.722,13.617,13.688,13.617,13.688z"/>
<path fill="url(#svg-txplogo-grad3)" d="M23.083,25.506c-1.081-1.081-3.173-3.061-4.083-3.969c-0.15-0.149-1.986-1.947-2.374-2.335c-0.387-0.388-3.772-3.461-4.397-4.085s-1.329-1.476-1.593-1.74c-0.264-0.265-0.764-0.852-1.045-1.134c-0.282-0.282-0.714-0.747-1.049-1.081c-0.115-0.114-0.2-0.179-0.25-0.201l-0.039,0.036c0.022,0.053,0.091,0.143,0.218,0.271c0.362,0.361,0.828,0.934,1.039,1.145c0.211,0.211,0.916,0.901,1.338,1.324c0.423,0.422,1.223,1.341,1.442,1.561c0.879,0.879,1.568,1.34,2.607,2.38c1.039,1.038,3.511,3.517,4.021,4.028c0.864,0.863,2.133,1.945,2.739,2.553c0.608,0.607,1.98,2.051,2.676,2.745c0.696,0.696,1.616,1.649,2.232,2.266c0.616,0.617,2.289,2.183,2.289,2.183c-2.553-2.603-2.473-2.679-3.362-3.567C24.542,26.933,23.672,26.095,23.083,25.506z M28.739,30.046c-0.869-0.869-1.52-1.563-2.439-2.478c-0.919-0.913-1.955-1.888-2.766-2.694c-0.812-0.806-3.148-3.054-3.148-3.054s2.307,2.418,3.19,3.295c0.884,0.878,1.592,1.599,2.646,2.646c1.054,1.049,2.646,2.696,3.275,3.319c0.531,0.529,2.011,1.865,2.011,1.865l0.234-0.193C31.741,32.752,30.041,31.347,28.739,30.046z M11.226,13.543c0.756,0.811,5.537,5.22,6.225,5.957c0.688,0.735,3.773,3.61,3.773,3.61s-2.083-2.073-3.076-3.141c-0.995-1.063-4.782-4.375-5.971-5.649c-1.189-1.272-3.279-3.346-3.279-3.346L8.711,11.12C8.711,11.12,10.47,12.733,11.226,13.543z M30.242,32.793c-0.578-0.612-1.155-1.088-1.155-1.088s0.68,0.883,1.002,1.172c0.213,0.191,0.455,0.434,0.596,0.576c0.057-0.024,0.117-0.053,0.181-0.086C30.739,33.275,30.538,33.106,30.242,32.793z M17.725,18.185c-0.007,0.002-0.014,0.005-0.021,0.007c0.317,0.288,0.532,0.482,0.532,0.482S18.031,18.477,17.725,18.185z M19.917,20.57c-0.009-0.058-0.012-0.117-0.01-0.175c-0.716-0.619-1.698-1.427-2.477-2.106c-0.032,0.01-0.065,0.021-0.097,0.029c0.299,0.271,0.542,0.482,0.69,0.604C18.473,19.288,19.191,19.906,19.917,20.57z M20.05,19.854c-0.65-0.665-1.316-1.345-1.841-1.878c-0.054,0.024-0.105,0.048-0.158,0.07c0.729,0.715,1.417,1.391,1.952,1.916C20.018,19.926,20.032,19.89,20.05,19.854z M11.918,9.787c-0.599-0.599-1.076-1.075-1.262-1.263L10.65,8.529c0.179,0.201,0.637,0.712,1.195,1.313C11.87,9.823,11.893,9.806,11.918,9.787z M20.31,19.443c-0.228-0.235-0.425-0.439-0.536-0.55c-0.124-0.124-0.561-0.567-1.117-1.131c-0.024,0.012-0.048,0.023-0.072,0.034c0.484,0.492,1.09,1.117,1.673,1.718C20.275,19.491,20.292,19.467,20.31,19.443z M10.774,11.239c-0.602-0.609-1.16-1.173-1.426-1.444C9.303,9.852,9.26,9.906,9.22,9.958c0.305,0.29,0.898,0.853,1.509,1.437C10.741,11.342,10.757,11.29,10.774,11.239z M11.301,10.356c-0.392-0.384-0.912-0.886-1.278-1.25L9.845,9.27L9.84,9.274c0.584,0.572,1.026,0.931,1.36,1.207C11.233,10.44,11.264,10.398,11.301,10.356z M10.686,11.714c-0.777-0.75-1.354-1.288-1.629-1.544c-0.032,0.043-0.061,0.08-0.084,0.113c0.303,0.291,0.971,0.932,1.732,1.667C10.69,11.873,10.684,11.793,10.686,11.714z M10.934,10.869c0.022-0.043,0.053-0.086,0.08-0.129c-0.558-0.507-1.107-0.999-1.385-1.272L9.57,9.521C9.558,9.537,9.547,9.55,9.536,9.564c0.267,0.258,0.8,0.764,1.388,1.326C10.927,10.884,10.93,10.877,10.934,10.869z"/>
<path d="M10.937,0c0,0,0.892,0.631,2.312,2.051l0,0c1.42,1.42,2.051,2.311,2.051,2.311v0.792L5.154,15.298H4.362l0,0c0,0-1.186-0.925-2.311-2.05l0,0C0.63,11.827,0,10.938,0,10.938v-0.793L10.145,0H10.937z"/>
<path fill="url(#svg-txplogo-grad4)" d="M10.803,0.426h-0.481l-9.897,9.896v0.479c0,0,0.522,0.743,1.926,2.146c1.405,1.405,2.146,1.928,2.146,1.928h0.481l9.897-9.897v-0.48c0,0-0.522-0.74-1.927-2.145C11.544,0.947,10.803,0.426,10.803,0.426z"/>
<path fill="url(#svg-txplogo-grad4)" d="M10.803,0.426h-0.481l-9.897,9.896v0.479c0,0,0.522,0.743,1.926,2.146c1.405,1.405,2.146,1.928,2.146,1.928h0.481l9.897-9.897v-0.48c0,0-0.522-0.74-1.927-2.145C11.544,0.947,10.803,0.426,10.803,0.426z"/>
<path fill="url(#svg-txplogo-grad5)" d="M14.511,4.848c0,0-2.78,2.96-4.741,4.921S4.848,14.51,4.848,14.51s-1.085-0.566-2.288-1.771c-1.205-1.204-1.771-2.288-1.771-2.288s2.78-2.96,4.741-4.922c1.961-1.96,4.921-4.74,4.921-4.74s1.044,0.607,2.248,1.812S14.511,4.848,14.511,4.848z"/>
<path fill="url(#svg-txplogo-grad6)" d="M4.848,14.51c0,0-1.085-0.566-2.288-1.771c-1.205-1.204-1.771-2.288-1.771-2.288l-0.364-0.13v0.479c0,0,0.522,0.743,1.926,2.146c1.405,1.405,2.146,1.928,2.146,1.928h0.481L4.848,14.51z"/>
<path fill="url(#svg-txplogo-grad7)" d="M14.875,4.977v-0.48c0,0-0.522-0.74-1.927-2.145c-1.404-1.404-2.145-1.926-2.145-1.926h-0.481l0.129,0.363c0,0,1.044,0.607,2.248,1.812s1.812,2.247,1.812,2.247L14.875,4.977z"/>
<g fill="#494949">
	<path d="M7.112,8.008L6.996,8.123L6.903,8.029L7.232,7.7l0.093,0.094L7.21,7.91L7.81,8.508L7.711,8.606L7.112,8.008z"/>
	<path d="M7.717,7.876L7.258,7.675l0.105-0.104L7.643,7.7L7.513,7.42l0.105-0.105l0.198,0.462l0.506,0.22L8.217,8.103L7.896,7.955l0.149,0.319L7.939,8.38L7.717,7.876z"/>
	<path d="M7.675,7.26L7.823,7.11C7.878,7.057,7.931,7.028,8,7.029c0.07,0.002,0.125,0.036,0.207,0.118c0.061,0.061,0.097,0.106,0.111,0.168C8.337,7.388,8.32,7.459,8.247,7.531l-0.05,0.052l0.271,0.27L8.368,7.951L7.675,7.26z M8.103,7.488L8.15,7.441c0.08-0.081,0.034-0.13-0.036-0.198C8.049,7.177,7.996,7.124,7.918,7.201L7.866,7.254L8.103,7.488z"/>
</g>
<g fill="#191919">
	<path d="M7.112,7.924L6.996,8.038L6.903,7.945l0.329-0.329L7.325,7.71L7.21,7.824l0.599,0.6l-0.099,0.1L7.112,7.924z"/>
	<path d="M7.717,7.791l-0.459-0.2l0.105-0.105l0.28,0.13L7.513,7.334l0.105-0.104l0.198,0.462l0.506,0.221L8.217,8.017L7.896,7.869l0.149,0.319L7.939,8.294L7.717,7.791z"/>
	<path d="M7.675,7.174l0.148-0.149C7.878,6.971,7.931,6.943,8,6.945S8.125,6.98,8.208,7.062c0.061,0.061,0.097,0.106,0.111,0.169C8.337,7.303,8.32,7.373,8.247,7.446l-0.05,0.051l0.271,0.271L8.368,7.866L7.675,7.174z M8.103,7.404L8.15,7.355c0.08-0.079,0.034-0.129-0.036-0.198c-0.065-0.064-0.119-0.119-0.196-0.04L7.866,7.168L8.103,7.404z"/>
</g>
<g fill="#2d2d2d">
	<path d="M7.112,7.966L6.996,8.081L6.903,7.986l0.329-0.328l0.093,0.094L7.21,7.866l0.599,0.6L7.711,8.564L7.112,7.966z"/>
	<path fill="#2D2D2D" d="M7.717,7.833l-0.459-0.2l0.105-0.104l0.28,0.13L7.513,7.377l0.105-0.104l0.198,0.462l0.506,0.221L8.217,8.061L7.896,7.913l0.149,0.319L7.939,8.337L7.717,7.833z"/>
	<path fill="#2D2D2D" d="M7.675,7.218l0.148-0.15C7.878,7.014,7.931,6.986,8,6.987s0.125,0.034,0.207,0.118c0.061,0.06,0.097,0.105,0.111,0.168C8.337,7.345,8.32,7.416,8.247,7.489l-0.05,0.05L8.467,7.81L8.368,7.908L7.675,7.218z M8.103,7.446L8.15,7.399C8.23,7.318,8.184,7.27,8.114,7.2C8.049,7.135,7.996,7.082,7.918,7.158L7.866,7.21L8.103,7.446z"/>
</g>
<path d="M3.378,32.223L3.378,32.223c-0.939-0.939-1.674-2.106-1.674-2.106l0.915-0.915c0,0,0.959-0.263,1.542-0.845l0,0L23.057,9.459c1.203-1.202,2.46-3.853,2.46-3.853l3.322-3.322l0.865-0.586L34,5.994L33.413,6.86l-3.321,3.32c0,0-2.648,1.258-3.852,2.46l0,0L7.344,31.538c-0.582,0.583-0.846,1.542-0.846,1.542L5.579,34C5.579,34,4.317,33.161,3.378,32.223z"/>
<path fill="url(#svg-txplogo-grad8)" d="M29.113,2.613L29.113,2.613l-3.203,3.202c0,0-0.754,3.306-1.972,4.523l-0.642,0.642l1.421,1.422l0.642-0.643c1.218-1.217,4.524-1.972,4.524-1.972l3.203-3.201l0,0L29.113,2.613z"/>
<path fill="#616161" d="M24.718,12.402l0.58,0.58l0.642-0.642c1.217-1.219,3.944-2.553,3.944-2.553s-3.307,0.755-4.524,1.973L24.718,12.402z"/>
<path fill="#ebe9e9" d="M22.717,10.401l0.58,0.579l0.642-0.642c1.217-1.218,1.972-4.523,1.972-4.523S24.576,8.54,23.359,9.76L22.717,10.401z"/>
<path fill="#ffcc33" d="M23.339,10.938L5.042,29.237c-0.697,0.696-1.508,1.045-1.508,1.045l1.884,1.884l0,0c0,0,0.349-0.812,1.045-1.507l18.298-18.3L23.339,10.938z"/>
<path fill="#bfbfbf" d="M2.257,30.165c0,0,0.779,1.115,1.422,1.757c0.642,0.643,1.855,1.521,1.855,1.521L2.257,30.165z"/>
<polygon fill="#ebe9e9" points="33.087,6.587 33.452,6.047 29.653,2.249 29.113,2.613"/>
<g fill="#ba9c0a">
	<path d="M6.571,28.819l-0.087,0.087l-0.071-0.071l0.25-0.25l0.072,0.071l-0.087,0.087l0.455,0.455l-0.076,0.074L6.571,28.819z"/>
	<path d="M6.739,28.508l0.225-0.224l0.071,0.07l-0.149,0.15l0.154,0.153l0.13-0.13l0.071,0.07l-0.13,0.13l0.154,0.154l0.149-0.149l0.075,0.076l-0.224,0.224L6.739,28.508z"/>
	<path d="M7.377,28.371l-0.348-0.152l0.08-0.079l0.212,0.099l-0.098-0.214l0.08-0.08l0.15,0.352l0.384,0.167l-0.08,0.08l-0.243-0.111l0.112,0.241l-0.081,0.08L7.377,28.371z"/>
	<path d="M7.51,27.881l-0.087,0.087l-0.071-0.071l0.25-0.249l0.071,0.07l-0.087,0.087l0.455,0.454l-0.075,0.076L7.51,27.881z"/>
	<path d="M7.678,27.57l0.113-0.114c0.041-0.041,0.081-0.062,0.135-0.061c0.052,0.001,0.095,0.026,0.157,0.09c0.045,0.045,0.073,0.079,0.083,0.127c0.014,0.055,0.001,0.108-0.055,0.164l-0.038,0.039l0.206,0.204l-0.075,0.075L7.678,27.57z M8.004,27.743l0.036-0.036c0.062-0.061,0.026-0.098-0.026-0.15c-0.049-0.049-0.09-0.09-0.149-0.03l-0.04,0.038L8.004,27.743z"/>
	<path d="M8.079,27.168l0.063-0.062l0.644,0.409L8.71,27.589l-0.135-0.09l-0.102,0.103l0.09,0.135l-0.076,0.075L8.079,27.168z M8.263,27.289L8.261,27.29l0.152,0.227l0.076-0.075L8.263,27.289z"/>
	<path d="M8.42,26.969l-0.087,0.087l-0.07-0.07l0.25-0.25l0.07,0.071l-0.087,0.087l0.455,0.454l-0.075,0.076L8.42,26.969z"/>
	<path d="M8.71,26.681l-0.087,0.087l-0.071-0.071l0.25-0.251l0.072,0.072l-0.087,0.087l0.455,0.454l-0.075,0.076L8.71,26.681z"/>
	<path d="M8.879,26.368l0.224-0.224l0.071,0.07l-0.149,0.149L9.18,26.52l0.129-0.131L9.38,26.46l-0.13,0.129l0.153,0.155l0.15-0.15l0.076,0.076l-0.225,0.225L8.879,26.368z"/>
	<path d="M9.197,26.051l0.121-0.121c0.089-0.088,0.186-0.079,0.288,0.021c0.061,0.062,0.088,0.122,0.066,0.198l0.321,0.158l-0.079,0.08l-0.295-0.155l-0.045,0.045l0.225,0.226l-0.076,0.075L9.197,26.051z M9.507,26.211l0.043-0.043c0.052-0.053,0.031-0.091-0.021-0.143c-0.054-0.054-0.091-0.074-0.146-0.019l-0.04,0.04L9.507,26.211z"/>
	<path d="M9.553,25.695l0.072-0.072l0.431,0.204l0.001-0.002l-0.316-0.317l0.075-0.075l0.526,0.526l-0.071,0.07L9.84,25.828L9.838,25.83l0.315,0.316l-0.075,0.074L9.553,25.695z"/>
</g>
<g fill="#ecd74c">
	<path d="M6.571,28.888l-0.087,0.087l-0.071-0.07l0.25-0.25l0.072,0.07l-0.087,0.088l0.455,0.453l-0.076,0.076L6.571,28.888z"/>
	<path d="M6.739,28.576l0.225-0.225l0.071,0.071l-0.149,0.149l0.154,0.154l0.13-0.13l0.071,0.07l-0.13,0.131l0.154,0.154l0.149-0.149l0.075,0.076l-0.224,0.223L6.739,28.576z"/>
	<path d="M7.377,28.439l-0.348-0.151l0.08-0.08l0.212,0.1l-0.098-0.215l0.08-0.079l0.15,0.351l0.384,0.166l-0.08,0.081l-0.243-0.112l0.112,0.242l-0.081,0.08L7.377,28.439z"/>
	<path d="M7.51,27.949l-0.087,0.087l-0.071-0.071l0.25-0.249l0.071,0.071l-0.087,0.087l0.455,0.454l-0.075,0.076L7.51,27.949z"/>
	<path d="M7.678,27.639l0.113-0.113c0.041-0.042,0.081-0.062,0.135-0.061c0.052,0.001,0.095,0.025,0.157,0.089c0.045,0.045,0.073,0.081,0.083,0.128c0.014,0.055,0.001,0.108-0.055,0.163l-0.038,0.039l0.206,0.204l-0.075,0.076L7.678,27.639z M8.004,27.812l0.036-0.036c0.062-0.062,0.026-0.098-0.026-0.15c-0.049-0.05-0.09-0.09-0.149-0.031l-0.04,0.04L8.004,27.812z"/>
	<path d="M8.079,27.236l0.063-0.062l0.644,0.408L8.71,27.658l-0.135-0.091L8.473,27.67l0.09,0.136l-0.076,0.075L8.079,27.236z M8.263,27.356l-0.001,0.002l0.152,0.227l0.076-0.074L8.263,27.356z"/>
	<path d="M8.42,27.038l-0.087,0.087l-0.07-0.072l0.25-0.248l0.07,0.07l-0.087,0.087l0.455,0.455l-0.075,0.076L8.42,27.038z"/>
	<path d="M8.71,26.748l-0.087,0.088l-0.071-0.071l0.25-0.25l0.072,0.07l-0.087,0.088l0.455,0.455l-0.075,0.074L8.71,26.748z"/>
	<path d="M8.879,26.438l0.224-0.225l0.071,0.071l-0.149,0.148l0.154,0.154l0.129-0.129l0.071,0.07l-0.13,0.13l0.153,0.155l0.15-0.149l0.076,0.074l-0.225,0.226L8.879,26.438z"/>
	<path d="M9.197,26.119l0.121-0.121c0.089-0.089,0.186-0.08,0.288,0.022c0.061,0.061,0.088,0.122,0.066,0.196l0.321,0.159l-0.079,0.08l-0.295-0.154l-0.045,0.045l0.225,0.224l-0.076,0.076L9.197,26.119z M9.507,26.278l0.043-0.042c0.052-0.052,0.031-0.09-0.021-0.143c-0.054-0.054-0.091-0.073-0.146-0.018l-0.04,0.039L9.507,26.278z"/>
	<path d="M9.553,25.765l0.072-0.073l0.431,0.203l0.001-0.002l-0.316-0.316l0.075-0.074l0.526,0.524l-0.071,0.071L9.84,25.896l-0.001,0.001l0.315,0.316l-0.075,0.076L9.553,25.765z"/>
</g>
<g fill="#fcc332">
	<path d="M6.571,28.854l-0.087,0.086l-0.071-0.07l0.25-0.249l0.072,0.07l-0.087,0.088l0.455,0.454l-0.076,0.075L6.571,28.854z"/>
	<path d="M6.739,28.542l0.225-0.224l0.071,0.069l-0.149,0.149l0.154,0.155l0.13-0.131l0.071,0.072l-0.13,0.129l0.154,0.154l0.149-0.148l0.075,0.075l-0.223,0.225L6.739,28.542z"/>
	<path d="M7.377,28.405l-0.348-0.152l0.08-0.079l0.212,0.099L7.223,28.06l0.08-0.08l0.15,0.351l0.384,0.167l-0.08,0.08l-0.243-0.111l0.112,0.242l-0.081,0.08L7.377,28.405z"/>
	<path d="M7.51,27.913l-0.087,0.088L7.352,27.93l0.25-0.248l0.071,0.069L7.584,27.84l0.455,0.455l-0.075,0.074L7.51,27.913z"/>
	<path d="M7.678,27.604l0.113-0.112c0.041-0.043,0.081-0.063,0.135-0.062c0.052,0.001,0.095,0.026,0.157,0.09c0.045,0.045,0.073,0.079,0.083,0.127c0.014,0.055,0.001,0.108-0.055,0.165L8.074,27.85l0.206,0.204l-0.075,0.075L7.678,27.604z M8.004,27.778l0.036-0.036c0.062-0.062,0.026-0.099-0.026-0.151c-0.049-0.05-0.09-0.09-0.149-0.031l-0.04,0.04L8.004,27.778z"/>
	<path d="M8.079,27.203l0.063-0.062l0.644,0.408L8.71,27.625l-0.135-0.092l-0.102,0.103l0.09,0.135l-0.076,0.076L8.079,27.203z M8.263,27.322l-0.001,0.002l0.152,0.228l0.076-0.075L8.263,27.322z"/>
	<path d="M8.42,27.003L8.333,27.09l-0.07-0.07l0.25-0.25l0.07,0.071l-0.087,0.087l0.455,0.455l-0.075,0.076L8.42,27.003z"/>
	<path d="M8.71,26.714l-0.087,0.088l-0.071-0.072l0.25-0.248l0.072,0.069l-0.087,0.088l0.455,0.453l-0.075,0.077L8.71,26.714z"/>
	<path d="M8.879,26.402l0.224-0.224l0.071,0.07l-0.149,0.15l0.154,0.153l0.129-0.13l0.071,0.071l-0.13,0.13l0.153,0.154l0.15-0.148l0.076,0.074l-0.225,0.224L8.879,26.402z"/>
	<path d="M9.197,26.085l0.121-0.12c0.089-0.09,0.186-0.081,0.288,0.021c0.061,0.061,0.088,0.121,0.066,0.196l0.321,0.158l-0.079,0.08l-0.295-0.153l-0.045,0.045l0.225,0.224l-0.076,0.075L9.197,26.085z M9.507,26.244l0.043-0.042c0.052-0.053,0.031-0.091-0.021-0.143c-0.054-0.053-0.091-0.072-0.146-0.018l-0.04,0.039L9.507,26.244z"/>
	<path d="M9.553,25.729l0.072-0.072l0.431,0.204l0.001-0.002l-0.316-0.317l0.075-0.074l0.526,0.525l-0.071,0.07l-0.431-0.2l-0.001,0.001l0.315,0.316l-0.075,0.074L9.553,25.729z"/>
</g>
<rect fill="#3d2812" x="5.065" y="32.312" transform="matrix(0.7068 -0.7074 0.7074 0.7068 -21.6011 13.4916)" width="0.821" height="0.986"/>
<rect fill="#e2d9ac" x="2.403" y="29.814" transform="matrix(-0.7069 -0.7074 0.7074 -0.7069 -16.437 53.6365)" width="0.984" height="0.821"/>
<rect fill="#fcc332" x="3.774" y="30.182" transform="matrix(-0.7071 0.7071 -0.7071 -0.7071 29.4273 50.8401)" width="0.82" height="2.664"/>
<path fill="#473015" d="M25.341,12.939l-0.58-0.579L6.462,30.659c-0.696,0.695-1.045,1.507-1.045,1.507l0.697,0.697c0,0,0.232-0.928,0.929-1.625L25.341,12.939z"/>
<path fill="#ede5b2" d="M22.759,10.358l-18.298,18.3c-0.696,0.696-1.624,0.928-1.624,0.928l0.696,0.696c0,0,0.812-0.348,1.509-1.045l18.297-18.3L22.759,10.358z"/>
<path d="M61,27v-1.2c0,0-1.164-0.357-1.64-0.473c-0.426-0.104-0.876-0.223-1.36-0.297V8h4.583l1.5,4h1.166c0.064-0.393,0.125-0.91,0.167-1.406c0.043-0.496,0.135-1.29,0.167-1.805c0.032-0.516,0.079-0.653,0.101-1.148c0.021-0.498,0.066-0.821,0.066-1.212V6h-19.5v0.429c0,0.391,0.045,0.714,0.066,1.212c0.021,0.495,0.069,0.633,0.101,1.148c0.031,0.515,0.124,1.309,0.167,1.805c0.042,0.496,0.103,1.014,0.167,1.406h1.166l1.5-4H54v17.03c-0.484,0.074-0.934,0.192-1.36,0.297C52.164,25.442,51,25.8,51,25.8V27H61z"/>
<path d="M76.97,12.973c-0.598-0.437-1.29-0.753-2.056-0.941c-0.756-0.188-1.534-0.281-2.31-0.281c-2.404,0-4.294,0.67-5.616,1.994C65.669,15.062,65,16.999,65,19.5c0,1.17,0.174,2.238,0.519,3.176c0.346,0.944,0.862,1.77,1.533,2.45c0.673,0.682,1.526,1.212,2.533,1.577c1,0.362,2.17,0.547,3.476,0.547c0.601,0,1.2-0.064,1.781-0.192c0.581-0.129,1.123-0.303,1.612-0.519c0.493-0.217,0.937-0.479,1.321-0.776c0.392-0.306,0.686-0.637,0.874-0.987l0.071-0.134l-0.709-0.714l-0.162,0.126c-0.364,0.287-0.929,0.525-1.677,0.708c-0.761,0.186-1.522,0.279-2.263,0.279c-0.9,0-1.694-0.142-2.357-0.427c-0.662-0.281-1.217-0.673-1.651-1.165c-0.436-0.494-0.769-1.085-0.986-1.755c-0.2-0.613-0.312-0.991-0.33-1.694h10.143l0.038-0.456c0.089-0.394,0.151-0.765,0.184-1.104c0.033-0.342,0.05-0.683,0.05-1.012c0-1.064-0.189-1.971-0.561-2.698C78.066,14.004,77.572,13.413,76.97,12.973z M72.408,13.381c1.022,0,1.75,0.314,2.224,0.962c0.486,0.663,0.732,1.574,0.732,2.708c0,0.143-0.031,0.849-0.042,0.949h-6.625c0.139-1.62,0.504-2.982,1.087-3.628C70.388,13.704,71.246,13.381,72.408,13.381z"/>
<path d="M174.97,12.973c-0.598-0.437-1.29-0.753-2.056-0.941c-0.756-0.188-1.533-0.281-2.31-0.281c-2.404,0-4.294,0.67-5.616,1.994C163.67,15.062,163,16.999,163,19.5c0,1.17,0.174,2.238,0.52,3.176c0.346,0.944,0.861,1.77,1.533,2.45c0.673,0.682,1.525,1.212,2.533,1.577c1,0.362,2.17,0.547,3.476,0.547c0.601,0,1.2-0.064,1.781-0.192c0.581-0.129,1.122-0.303,1.612-0.519c0.492-0.217,0.937-0.479,1.32-0.776c0.392-0.306,0.686-0.637,0.874-0.987l0.071-0.134l-0.709-0.714l-0.162,0.126c-0.363,0.287-0.928,0.525-1.676,0.708c-0.762,0.186-1.523,0.279-2.264,0.279c-0.9,0-1.693-0.142-2.357-0.427c-0.662-0.281-1.217-0.673-1.65-1.165c-0.437-0.494-0.77-1.085-0.986-1.755c-0.201-0.613-0.312-0.991-0.33-1.694h10.143l0.037-0.456c0.09-0.394,0.151-0.765,0.185-1.104c0.032-0.342,0.05-0.683,0.05-1.012c0-1.064-0.189-1.971-0.561-2.698C176.066,14.004,175.572,13.413,174.97,12.973z M170.408,13.381c1.021,0,1.75,0.314,2.224,0.962c0.486,0.663,0.732,1.574,0.732,2.708c0,0.143-0.03,0.849-0.042,0.949h-6.625c0.14-1.62,0.505-2.982,1.088-3.628C168.389,13.704,169.246,13.381,170.408,13.381z"/>
<path d="M79,27h5.767v-1.076c-0.253-0.138-0.622-0.322-0.875-0.44c-0.174-0.081-0.361-0.159-0.558-0.233l3.151-4.309l3.122,4.308c-0.167,0.064-0.335,0.138-0.502,0.223c-0.251,0.127-0.645,0.295-0.938,0.452V27H95v-1.076c-0.26-0.163-0.642-0.35-0.934-0.461c-0.264-0.101-0.532-0.196-0.805-0.289l-4.787-6.194l4.125-5.12c0.755-0.213,1.435-0.527,1.834-0.783V12h-5.667v1.076c0.309,0.234,0.866,0.513,1.458,0.71l-2.836,3.896l-2.891-3.894c0.192-0.065,0.374-0.144,0.542-0.232c0.248-0.132,0.613-0.325,0.86-0.479V12h-6.733v1.076c0.258,0.161,0.635,0.377,0.88,0.484c0.227,0.103,0.481,0.201,0.756,0.295l4.535,5.703l-4.497,5.606c-0.577,0.144-1.268,0.434-1.841,0.759V27z"/>
<path d="M100.23,8c-0.376,0.157-0.779,0.327-1.127,0.525C98.758,8.72,98,9.154,98,9.154v2.598c-0.833,0.209-1.244,0.52-2,0.978V14h2v8.875c0,1.518,0.424,2.636,1.119,3.33c0.695,0.693,1.707,1.045,3.008,1.045c0.493,0,0.984-0.061,1.458-0.183c0.467-0.117,0.903-0.268,1.299-0.446c0.393-0.177,0.748-0.369,1.057-0.567c0.314-0.199,0.847-0.691,0.847-0.691l-0.37-0.734c0,0-1.02,0.278-1.562,0.322c-0.553,0.048-1.019,0.072-1.385,0.072c-0.73,0-1.2-0.211-1.556-0.644c-0.361-0.438-0.413-1.22-0.413-2.318V14h4.5v-2h-4.5V8H100.23z"/>
<path d="M144.23,8c-0.376,0.157-0.779,0.327-1.127,0.525C142.758,8.72,142,9.154,142,9.154v2.598c-0.833,0.209-1.244,0.52-2,0.978V14h2v8.875c0,1.518,0.424,2.636,1.119,3.33c0.694,0.693,1.706,1.045,3.008,1.045c0.492,0,0.983-0.061,1.457-0.183c0.467-0.117,0.903-0.268,1.299-0.446c0.393-0.177,0.748-0.369,1.057-0.567c0.314-0.199,0.847-0.691,0.847-0.691l-0.37-0.734c0,0-1.02,0.278-1.562,0.322c-0.553,0.048-1.019,0.072-1.385,0.072c-0.73,0-1.201-0.211-1.557-0.644c-0.361-0.438-0.412-1.22-0.412-2.318V14h4.5v-2h-4.5V8H144.23z"/>
<path d="M115.5,31.8c-0.391-0.22-0.898-0.488-1.25-0.6c-0.285-0.092-0.463-0.156-0.75-0.2v-4.232c0.426,0.159,0.632,0.276,1.001,0.349c0.455,0.091,1.087,0.136,1.879,0.136c1.14,0,2.196-0.191,3.136-0.571c0.942-0.38,1.756-0.93,2.419-1.632c0.661-0.699,1.178-1.571,1.535-2.59c0.354-1.013,0.53-2.194,0.53-3.439c0-2.634-0.537-4.537-1.604-5.723c-1.071-1.191-2.596-1.797-4.529-1.797c-1.268,0-2.314,0.316-3.109,0.937c-0.577,0.453-0.869,1.021-1.258,1.695V11.5l-1.234,0.002c-0.684,0.1-1.387,0.233-2.092,0.399c-0.717,0.168-1.492,0.392-2.174,0.667v0.056v1.098l2,0.233V31c-0.635,0.158-1.334,0.51-2,0.8V33h7.5V31.8z M120.531,19.055c0,0.951-0.104,1.832-0.31,2.621c-0.205,0.783-0.499,1.476-0.875,2.059c-0.37,0.572-0.825,1.021-1.353,1.334c-0.522,0.309-1.119,0.466-1.772,0.466c-0.741,0-1.348-0.053-1.804-0.155c-0.406-0.091-0.584-0.226-0.918-0.4v-8.034c0.244-0.995,0.463-1.789,1.038-2.358c0.567-0.56,1.347-0.842,2.317-0.842c0.676,0,1.252,0.128,1.714,0.382c0.461,0.254,0.839,0.618,1.123,1.08c0.29,0.472,0.505,1.039,0.638,1.684C120.463,17.546,120.531,18.272,120.531,19.055z"/>
<path d="M140,25.129l-2-0.326v-8.266c0-0.548-0.139-1.103-0.25-1.653c-0.115-0.564-0.48-1.087-0.85-1.554c-0.371-0.467-0.916-0.853-1.616-1.145c-0.694-0.288-1.626-0.436-2.769-0.436c-1.26,0-2.422,0.128-3.455,0.381c-1.033,0.252-1.985,0.607-2.83,1.056l-0.123,0.065l0.01,0.134c0.043,0.602,0.15,1.226,0.317,1.85c0.166,0.62,0.362,1.227,0.583,1.803l0.052,0.141h1.162l1.563-3.497c0.322-0.107,0.652-0.175,0.982-0.201c0.377-0.027,0.719-0.042,1.017-0.042c0.607,0,1.101,0.118,1.467,0.353c0.366,0.233,0.647,0.57,0.839,1c0.197,0.445,0.37,0.993,0.4,1.626v2.019c-1.455,0.076-2.875,0.185-3.983,0.321c-1.177,0.146-2.179,0.389-2.985,0.723c-0.824,0.341-1.459,0.816-1.886,1.412C125.217,21.49,125,22.261,125,23.183c0,1.209,0.45,2.2,1.34,2.947c0.881,0.742,2.03,1.12,3.417,1.12c0.724,0,1.381-0.102,1.95-0.302c0.568-0.198,1.07-0.461,1.492-0.781c0.424-0.321,0.773-0.695,1.036-1.107c0.111-0.171,0.185-0.345,0.265-0.517c0.019,0.352,0.064,0.687,0.091,1c0.046,0.552,0.186,1.065,0.415,1.527l0.049,0.122l1.014-0.003c0.618-0.098,1.274-0.245,1.949-0.438c0.674-0.194,1.424-0.454,1.982-0.71V25.129z M133.408,24.126c-0.265,0.25-0.599,0.469-0.99,0.65c-0.384,0.176-0.837,0.264-1.348,0.264c-0.777,0-1.37-0.198-1.811-0.612c-0.436-0.407-0.656-1-0.656-1.764c0-0.449,0.082-0.851,0.244-1.195c0.152-0.33,0.443-0.61,0.857-0.835c0.434-0.236,1.049-0.411,1.827-0.521c0.747-0.106,1.815-0.164,2.968-0.17v2.774c-0.062,0.17-0.28,0.383-0.436,0.63C133.898,23.61,133.677,23.872,133.408,24.126z"/>
<path d="M186,25.917c-0.432-0.22-1.071-0.427-1.5-0.536c-0.363-0.092-0.639-0.143-1-0.185v-8.373c0.255-0.644,0.354-1.138,0.671-1.468c0.304-0.314,0.558-0.706,0.759-0.818h4.32v-0.788l-0.01-0.065c-0.105-0.332-0.217-0.648-0.333-0.951c-0.118-0.308-0.254-0.594-0.405-0.854l-0.055-0.094l-0.109-0.011c-0.588-0.061-1.168-0.004-1.727,0.167c-0.551,0.171-1.066,0.418-1.529,0.735c-0.459,0.317-0.872,0.679-1.227,1.076c-0.21,0.234-0.201,0.473-0.355,0.71V11.75h-1.198c-0.654,0.098-1.366,0.255-2.071,0.417c-0.718,0.168-1.557,0.457-2.23,0.729v0.984l2,0.328v10.987c-0.282,0.068-0.501,0.149-0.783,0.23c-0.346,0.101-0.832,0.293-1.217,0.49V27h8V25.917z"/>
<path d="M208,25.917c-0.539-0.316-1.199-0.577-2-0.721v-7.153c0-1.212-0.192-2.229-0.434-3.027c-0.244-0.812-0.66-1.468-1.131-1.955c-0.477-0.488-1.078-0.834-1.791-1.027c-0.691-0.188-1.484-0.283-2.357-0.283c-1.246,0-2.324,0.336-3.207,0.999c-0.652,0.491-1.153,1.062-1.58,1.7V11.75h-1.167c-0.799,0.136-1.511,0.297-2.236,0.469c-0.736,0.175-1.534,0.463-2.097,0.678v0.984l2,0.328v10.987c-0.814,0.203-1.488,0.481-2,0.721V27h7.5v-1.083c-0.584-0.326-1.377-0.593-2-0.721v-8.245c0.142-0.375,0.293-0.742,0.533-1.092c0.244-0.359,0.539-0.686,0.877-0.971c0.333-0.282,0.723-0.509,1.157-0.672c0.433-0.163,0.909-0.246,1.415-0.246c1.166,0,1.883,0.381,2.317,1.161c0.452,0.816,0.7,1.951,0.7,3.374v6.69c-0.632,0.185-1.455,0.467-2,0.721V27h7.5V25.917z"/>
<path d="M155.23,8c-0.376,0.157-0.779,0.327-1.127,0.525C153.758,8.72,153,9.154,153,9.154v2.598c-0.833,0.209-1.244,0.52-2,0.978V14h2v8.875c0,1.518,0.424,2.636,1.119,3.33c0.694,0.693,1.706,1.045,3.008,1.045c0.492,0,0.983-0.061,1.457-0.183c0.467-0.117,0.903-0.268,1.299-0.446c0.393-0.177,0.748-0.369,1.057-0.567c0.314-0.199,0.847-0.691,0.847-0.691l-0.37-0.734c0,0-1.02,0.278-1.562,0.322c-0.553,0.048-1.019,0.072-1.385,0.072c-0.73,0-1.201-0.211-1.557-0.644c-0.361-0.438-0.412-1.22-0.412-2.318V14h4.5v-2h-4.5V8H155.23z"/>
</svg>
