<?xml version="1.0" encoding="utf-8"?>
<!DOCTYPE svg>
<svg version="1.1" baseProfile="full" xmlns="http://www.w3.org/2000/svg" xmlns:xlink="http://www.w3.org/1999/xlink" x="0px" y="0px" width="492px" height="80px" viewBox="0 0 492 80" enable-background="new 0 0 492 80" xml:space="preserve">
<linearGradient id="svg-txplogo-grad1" gradientUnits="userSpaceOnUse" x1="145.7871" y1="-591.0859" x2="154.5783" y2="-582.2948" gradientTransform="matrix(1 0 0 -1 -101 -537.5)">
	<stop offset="0.1484" style="stop-color:#7b6c35"/>
	<stop offset="0.8352" style="stop-color:#b9aa69"/>
</linearGradient>
<linearGradient id="svg-txplogo-grad2" gradientUnits="userSpaceOnUse" x1="145.7798" y1="-591.0767" x2="154.4253" y2="-582.4312" gradientTransform="matrix(1 0 0 -1 -101 -537.5)">
	<stop offset="9.340000e-02" style="stop-color:#2b2414"/>
	<stop offset="0.7363" style="stop-color:#624e22"/>
</linearGradient>
<linearGradient id="svg-txplogo-grad3" gradientUnits="userSpaceOnUse" x1="152.6758" y1="-584.1592" x2="146.6302" y2="-590.2048" gradientTransform="matrix(1 0 0 -1 -101 -537.5)">
	<stop offset="0.5165" style="stop-color:#2d2400"/>
	<stop offset="0.8626" style="stop-color:#211700"/>
</linearGradient>
<linearGradient id="svg-txplogo-grad4" gradientUnits="userSpaceOnUse" x1="113.644" y1="-550.1401" x2="124.357" y2="-560.8531" gradientTransform="matrix(1 0 0 -1 -101 -537.5)">
	<stop offset="0" style="stop-color:#ffffff"/>
	<stop offset="1" style="stop-color:#666666"/>
</linearGradient>
<linearGradient id="svg-txplogo-grad5" gradientUnits="userSpaceOnUse" x1="107.0229" y1="-567.4731" x2="130.8795" y2="-543.6166" gradientTransform="matrix(1 0 0 -1 -101 -537.5)">
	<stop offset="7.690000e-02" style="stop-color:#0a0a0a"/>
	<stop offset="0.533" style="stop-color:#0f0f0f"/>
	<stop offset="0.9121" style="stop-color:#1a1a1a"/>
</linearGradient>
<linearGradient id="svg-txplogo-grad6" gradientUnits="userSpaceOnUse" x1="101.728" y1="-562.0562" x2="112.4396" y2="-572.7677" gradientTransform="matrix(1 0 0 -1 -101 -537.5)">
	<stop offset="0" style="stop-color:#999999"/>
	<stop offset="1" style="stop-color:#1a1a1a"/>
</linearGradient>
<linearGradient id="svg-txplogo-grad7" gradientUnits="userSpaceOnUse" x1="125.561" y1="-538.2261" x2="136.2726" y2="-548.9376" gradientTransform="matrix(1 0 0 -1 -101 -537.5)">
	<stop offset="0" style="stop-color:#cccccc"/>
	<stop offset="1" style="stop-color:#333333"/>
</linearGradient>
<linearGradient id="svg-txplogo-grad8" gradientUnits="userSpaceOnUse" x1="155.8159" y1="-555.165" x2="178.8511" y2="-555.165" gradientTransform="matrix(1 0 0 -1 -101 -537.5)">
	<stop offset="0.125" style="stop-color:#cdcdcb"/>
	<stop offset="0.875" style="stop-color:#a09ea1"/>
</linearGradient>
<path d="M76.6,76.6c-2.8,2.8-5.7,4.1-6.8,3c-0.4-0.4,0,0,0,0c-0.2-0.2-7.5-8.2-15.7-16.5l0,0C46.6,55.6,37.8,48,32.4,42.6C27,37.2,18,27.1,18,27.1l0,0l-0.6-0.7l4.4-4.7l4.7-4.3l0.7,0.6c0,0,10.1,9,15.5,14.4c5.4,5.4,13,14.2,20.5,21.7l0,0c8.3,8.3,16.2,15.4,16.5,15.8C80.6,70.8,79.6,73.7,76.6,76.6z"/>
<path fill="url(#svg-txplogo-grad1)" d="M41.9,33.1c-5.4-5.4-15.4-14.3-15.4-14.3l-4,3.7l-3.7,4c0,0,9,10.1,14.3,15.5c5.4,5.4,14.1,13,21.7,20.5c8.3,8.3,15.6,16.4,15.7,16.5c0.1,0.1,1.7,0.8,5.4-3c3.7-3.7,3.1-5.3,3-5.4c-0.1-0.1-8.3-7.5-16.5-15.8C54.9,47.3,47.3,38.5,41.9,33.1z"/>
<path fill="url(#svg-txplogo-grad2)" d="M75.1,76.7c-0.3,0-0.5-0.2-0.9-0.6c-0.4-0.4-8.1-8.2-16.3-16.4c-3.1-3.1-9.1-8.7-10-9.4c-1.5-1.3-1.3-2.6-0.6-3.9c0.8-1.3,2.7-2.9,4-3c-1.3-1.4-2.5-2.7-3.7-4c-3.6,2-7.8,4.4-8.4,3.8c-2.9-2.9-10.2-10.2-13.3-13.3c-1.4-1.4-1.2-2.8-0.4-4.2c0.8-1.6,3-3.3,4.3-3.6l0,0c-2.1-1.9-3.5-3.2-3.5-3.2l-4,3.7l-3.7,4c0,0,9,10.1,14.3,15.4c5.4,5.4,14.1,13,21.7,20.5c8.3,8.3,15.6,16.4,15.7,16.5C70.6,79,72,79.6,75.1,76.7z"/>
<path fill="#6b5600" d="M60.5,56.1c0,0-1-1.2-2.3-2.5c-1.2-1.2-2.6-2.5-2.6-2.5s1.5,1.7,2.3,2.5C58.8,54.5,60.5,56.1,60.5,56.1z M41.7,36.5c-1.2-1.2-3.1-3.1-3.1-3.1s1.8,2.3,2.9,3.4C42.5,37.8,42.8,37.7,41.7,36.5z M39,41.2c-1.9-1.9-5-4.8-9.9-9.8c-3.8-3.8-6.9-6.7-7.9-7.6L21,24.1c1.3,1.3,7.1,6.8,10.2,9.9c3.6,3.6,9.6,9.2,11.2,10.6c1.6,1.3,4.7,4,7.1,6.4c2.4,2.4,4.9,4.6,4.9,4.6s-4-4.2-5.8-6C46.7,47.7,41.2,43.4,39,41.2z M37.8,32.8c0,0-2.5-2.5-6.2-6.2c-2.9-2.9-5.7-5.7-6.5-6.5l0,0c0.8,0.9,3.7,4.1,6.3,6.7C34.4,29.9,37.8,32.8,37.8,32.8z M30.2,28.3c0.5,0.5,1.9,1.8,2.8,2.8s3.1,3.3,3.6,3.8c2.1,2.1,3.5,3.4,5.9,5.8c2.4,2.4,8.5,8.7,9.7,9.9c2,2,4.8,5,6.3,6.4c1.4,1.4,4.7,4.5,6.3,6.2c1.6,1.6,3.8,3.7,5.3,5.2c1.5,1.5,5.4,4.8,5.4,4.8s-6.2-6.2-8.5-8.4c-2.2-2.2-5.1-4.8-6.5-6.1c-1.9-1.9-5.1-5.3-6.8-7c-1.6-1.6-2.1-1.9-2.5-2.3c-0.4-0.4-3.8-3.9-4.7-4.8c-0.9-0.9-8.9-9-10.4-10.5c-1.5-1.5-3-3-3.6-3.6c-0.6-0.6-1.7-1.9-2.4-2.6c-0.7-0.7-1.8-1.7-2.6-2.4c-0.7-0.7-2.8-2.7-4-3.9l-0.4,0.4c2.1,2.1,3.5,3,4.3,3.8C28.3,26.5,29.7,27.8,30.2,28.3z M35,36.7c1.5,1.5,7.9,7.2,7.9,7.2s-4.3-4.1-6.5-6.3c-2.2-2.2-4.9-5-7.5-7.6c-2.2-2.2-5.8-5.8-6.9-6.9l-0.3,0.4c1.5,1.4,6.3,6,7.7,7.4C31,32.5,33.5,35.2,35,36.7z M67.2,66.4c-1.6-1.6-3.1-3-4.5-4.3c-1.4-1.4-5.4-5.6-5.4-5.6s4.1,4.7,5.6,6.2c1.5,1.5,2.6,2.3,4.4,4.1c1.8,1.8,4.5,4.6,5.6,5.7c0.9,0.9,2.8,2.4,3.5,2.9c0.1-0.1,0.1-0.1,0.2-0.2c-0.9-0.8-3.7-3.3-5-4.5C70.1,69.2,68.8,68,67.2,66.4z M72.7,68c-1-1-3.7-3.7-4.3-4.3s-2.7-2.2-2.7-2.2s1.4,1.6,1.8,2c0.4,0.4,2.6,2.2,4.2,3.9c1.4,1.4,5.2,5.2,6.2,6.3c0.1-0.2,0.3-0.4,0.4-0.6C77.2,72.1,73.5,68.8,72.7,68z M33.4,32.9c-1.7-1.8-3.8-4.1-4.5-4.8c-1.7-1.7-5-4.6-6.2-5.8l-0.2,0.2l0,0c1.2,1.2,4.9,4.6,7.2,7C31.1,30.9,33.4,32.9,33.4,32.9z M32,32.2c1.9,1.9,15.6,15.3,17.3,17.1c1.8,1.8,3.8,3.9,4.8,5c1,1,3.9,4,3.9,4s-3.9-4.4-6.1-6.6c-2.2-2.2-7.7-7.9-10.2-10.4C39.9,39.3,32,32.2,32,32.2z"/>
<path fill="url(#svg-txplogo-grad3)" d="M54.3,60c-2.5-2.5-7.5-7.2-9.6-9.3c-0.4-0.4-4.7-4.6-5.6-5.5c-0.9-0.9-8.9-8.1-10.3-9.6c-1.5-1.5-3.1-3.5-3.7-4.1c-0.6-0.6-1.8-2-2.5-2.7s-1.7-1.8-2.5-2.5c-0.3-0.3-0.5-0.4-0.6-0.5l-0.1,0.1c0.1,0.1,0.2,0.3,0.5,0.6c0.9,0.9,1.9,2.2,2.4,2.7c0.5,0.5,2.2,2.1,3.1,3.1s2.9,3.2,3.4,3.7c2.1,2.1,3.7,3.2,6.1,5.6c2.4,2.4,8.3,8.3,9.5,9.5c2,2,5,4.6,6.4,6c1.4,1.4,4.7,4.8,6.3,6.5c1.6,1.6,3.8,3.9,5.3,5.3c1.4,1.5,5.4,5.1,5.4,5.1c-6-6.1-5.8-6.3-7.9-8.4C57.7,63.4,55.7,61.4,54.3,60z M67.6,70.7c-2-2-3.6-3.7-5.7-5.8c-2.2-2.2-4.6-4.4-6.5-6.3c-1.9-1.9-7.4-7.2-7.4-7.2s5.4,5.7,7.5,7.8c2.1,2.1,3.7,3.8,6.2,6.2c2.5,2.5,6.2,6.3,7.7,7.8c1.2,1.2,4.7,4.4,4.7,4.4l0.6-0.5C74.7,77.1,70.7,73.8,67.6,70.7z M26.4,31.9c1.8,1.9,13,12.3,14.6,14c1.6,1.7,8.9,8.5,8.9,8.5S45,49.5,42.7,47c-2.3-2.5-11.2-10.3-14-13.3c-2.8-3-7.7-7.9-7.7-7.9l-0.4,0.3C20.5,26.2,24.6,30,26.4,31.9z M71.2,77.2c-1.4-1.4-2.7-2.6-2.7-2.6s1.6,2.1,2.4,2.8c0.5,0.5,1.1,1,1.4,1.4c0.1-0.1,0.3-0.1,0.4-0.2C72.3,78.3,71.9,77.9,71.2,77.2z M41.7,42.8C41.7,42.8,41.7,42.8,41.7,42.8c0.7,0.7,1.2,1.2,1.2,1.2S42.4,43.5,41.7,42.8z M46.9,48.4c0-0.1,0-0.3,0-0.4c-1.7-1.5-4-3.4-5.8-5c-0.1,0-0.2,0-0.2,0.1c0.7,0.6,1.3,1.1,1.6,1.4C43.5,45.4,45.2,46.8,46.9,48.4z M47.2,46.7c-1.5-1.6-3.1-3.2-4.3-4.4c-0.1,0.1-0.2,0.1-0.4,0.2c1.7,1.7,3.3,3.3,4.6,4.5C47.1,46.9,47.1,46.8,47.2,46.7z M28,23c-1.4-1.4-2.5-2.5-3-3l0,0c0.4,0.5,1.5,1.7,2.8,3.1C27.9,23.1,28,23.1,28,23z M47.8,45.7c-0.5-0.6-1-1-1.3-1.3c-0.3-0.3-1.3-1.3-2.6-2.7c-0.1,0-0.1,0.1-0.2,0.1c1.1,1.2,2.6,2.6,3.9,4C47.7,45.9,47.7,45.8,47.8,45.7z M25.4,26.4C23.9,25,22.6,23.7,22,23c-0.1,0.1-0.2,0.3-0.3,0.4c0.7,0.7,2.1,2,3.5,3.4C25.3,26.7,25.3,26.6,25.4,26.4z M26.6,24.4c-0.9-0.9-2.1-2.1-3-2.9l-0.4,0.4l0,0c1.4,1.3,2.4,2.2,3.2,2.8C26.4,24.6,26.5,24.5,26.6,24.4z M25.1,27.6c-1.8-1.8-3.2-3-3.8-3.6c-0.1,0.1-0.1,0.2-0.2,0.3c0.7,0.7,2.3,2.2,4.1,3.9C25.2,27.9,25.1,27.7,25.1,27.6z M25.7,25.6c0.1-0.1,0.1-0.2,0.2-0.3c-1.3-1.2-2.6-2.4-3.3-3l-0.1,0.1c0,0-0.1,0.1-0.1,0.1C23.1,23.1,24.3,24.3,25.7,25.6C25.7,25.6,25.7,25.6,25.7,25.6z"/>
<path d="M25.7,0c0,0,2.1,1.5,5.4,4.8l0,0c3.3,3.3,4.8,5.4,4.8,5.4v1.9L12.1,36h-1.9l0,0c0,0-2.8-2.2-5.4-4.8l0,0C1.5,27.8,0,25.7,0,25.7v-1.9L23.9,0H25.7z"/>
<path fill="url(#svg-txplogo-grad4)" d="M25.4,1h-1.1L1,24.3v1.1c0,0,1.2,1.7,4.5,5c3.3,3.3,5,4.5,5,4.5h1.1L35,11.7v-1.1c0,0-1.2-1.7-4.5-5C27.2,2.2,25.4,1,25.4,1z"/>
<path fill="url(#svg-txplogo-grad4)" d="M25.4,1h-1.1L1,24.3v1.1c0,0,1.2,1.7,4.5,5c3.3,3.3,5,4.5,5,4.5h1.1L35,11.7v-1.1c0,0-1.2-1.7-4.5-5C27.2,2.2,25.4,1,25.4,1z"/>
<path fill="url(#svg-txplogo-grad5)" d="M34.1,11.4c0,0-6.5,7-11.2,11.6c-4.6,4.6-11.6,11.2-11.6,11.2S8.9,32.8,6,30c-2.8-2.8-4.2-5.4-4.2-5.4S8.4,17.6,13,13C17.6,8.4,24.6,1.9,24.6,1.9s2.5,1.4,5.3,4.3C32.7,9,34.1,11.4,34.1,11.4z"/>
<path fill="url(#svg-txplogo-grad6)" d="M11.4,34.1c0,0-2.6-1.3-5.4-4.2c-2.8-2.8-4.2-5.4-4.2-5.4L1,24.3v1.1c0,0,1.2,1.7,4.5,5c3.3,3.3,5,4.5,5,4.5h1.1L11.4,34.1z"/>
<path fill="url(#svg-txplogo-grad7)" d="M35,11.7v-1.1c0,0-1.2-1.7-4.5-5c-3.3-3.3-5-4.5-5-4.5h-1.1l0.3,0.9c0,0,2.5,1.4,5.3,4.3c2.8,2.8,4.3,5.3,4.3,5.3L35,11.7z"/>
<g fill="#494949">
	<path d="M16.7,18.8l-0.3,0.3l-0.2-0.2l0.8-0.8l0.2,0.2L17,18.6l1.4,1.4l-0.2,0.2L16.7,18.8z"/>
	<path d="M18.2,18.5l-1.1-0.5l0.2-0.2l0.7,0.3l-0.3-0.7l0.2-0.2l0.5,1.1l1.2,0.5l-0.2,0.2l-0.8-0.3l0.3,0.8l-0.2,0.2L18.2,18.5z"/>
	<path d="M18.1,17.1l0.4-0.4c0.1-0.1,0.3-0.2,0.4-0.2c0.2,0,0.3,0.1,0.5,0.3c0.1,0.1,0.2,0.2,0.3,0.4c0,0.2,0,0.3-0.2,0.5l-0.1,0.1l0.6,0.6l-0.2,0.2L18.1,17.1z M19.1,17.6l0.1-0.1c0.2-0.2,0.1-0.3-0.1-0.5c-0.2-0.2-0.3-0.3-0.5-0.1l-0.1,0.1L19.1,17.6z"/>
</g>
<g fill="#191919">
	<path d="M16.7,18.6l-0.3,0.3l-0.2-0.2l0.8-0.8l0.2,0.2L17,18.4l1.4,1.4l-0.2,0.2L16.7,18.6z"/>
	<path d="M18.2,18.3l-1.1-0.5l0.2-0.2l0.7,0.3l-0.3-0.7l0.2-0.2l0.5,1.1l1.2,0.5l-0.2,0.2l-0.8-0.3l0.3,0.8l-0.2,0.2L18.2,18.3z"/>
	<path d="M18.1,16.9l0.4-0.3c0.1-0.1,0.3-0.2,0.4-0.2c0.2,0,0.3,0.1,0.5,0.3c0.1,0.1,0.2,0.2,0.3,0.4c0,0.2,0,0.3-0.2,0.5l-0.1,0.1l0.6,0.6l-0.2,0.2L18.1,16.9z M19.1,17.4l0.1-0.1c0.2-0.2,0.1-0.3-0.1-0.5c-0.2-0.2-0.3-0.3-0.5-0.1l-0.1,0.1L19.1,17.4z"/>
</g>
<g fill="#2d2d2d">
	<path d="M16.7,18.7L16.5,19l-0.2-0.2L17,18l0.2,0.2L17,18.5l1.4,1.4l-0.2,0.2L16.7,18.7z"/>
	<path d="M18.2,18.4L17.1,18l0.2-0.2L18,18l-0.3-0.7l0.2-0.2l0.5,1.1l1.2,0.5L19.3,19l-0.8-0.3l0.3,0.8l-0.2,0.2L18.2,18.4z"/>
	<path d="M18.1,17l0.4-0.4c0.1-0.1,0.3-0.2,0.4-0.2c0.2,0,0.3,0.1,0.5,0.3c0.1,0.1,0.2,0.2,0.3,0.4c0,0.2,0,0.3-0.2,0.5l-0.1,0.1l0.6,0.6l-0.2,0.2L18.1,17z M19.1,17.5l0.1-0.1c0.2-0.2,0.1-0.3-0.1-0.5c-0.2-0.2-0.3-0.3-0.5-0.1L18.5,17L19.1,17.5z"/>
</g>
<path d="M7.9,75.8L7.9,75.8c-2.2-2.2-3.9-5-3.9-5l2.2-2.2c0,0,2.3-0.6,3.6-2l0,0l44.5-44.5c2.8-2.8,5.8-9.1,5.8-9.1l7.8-7.8l2-1.4L80,14.1l-1.4,2L70.8,24c0,0-6.2,3-9.1,5.8l0,0L17.3,74.2c-1.4,1.4-2,3.6-2,3.6L13.1,80C13.1,80,10.2,78,7.9,75.8z"/>
<path fill="url(#svg-txplogo-grad8)" d="M68.5,6.1L68.5,6.1L61,13.7c0,0-1.8,7.8-4.6,10.6l-1.5,1.5l3.3,3.3l1.5-1.5c2.9-2.9,10.6-4.6,10.6-4.6l7.5-7.5l0,0L68.5,6.1z"/>
<path fill="#616161" d="M58.2,29.2l1.4,1.4L61,29c2.9-2.9,9.3-6,9.3-6s-7.8,1.8-10.6,4.6L58.2,29.2z"/>
<path fill="#ebe9e9" d="M53.5,24.5l1.4,1.4l1.5-1.5c2.9-2.9,4.6-10.6,4.6-10.6s-3.1,6.4-6,9.3L53.5,24.5z"/>
<path fill="#ffcc33" d="M54.9,25.7L11.9,68.8c-1.6,1.6-3.5,2.5-3.5,2.5l4.4,4.4h0c0,0,0.8-1.9,2.5-3.5l43.1-43.1L54.9,25.7z"/>
<path fill="#bfbfbf" d="M5.3,71c0,0,1.8,2.6,3.3,4.1c1.5,1.5,4.4,3.6,4.4,3.6L5.3,71z"/>
<polygon fill="#ebe9e9" points="77.9,15.5 78.7,14.2 69.8,5.3 68.5,6.1"/>
<g fill="#ba9c0a">
	<path d="M15.5,67.8L15.3,68l-0.2-0.2l0.6-0.6l0.2,0.2l-0.2,0.2l1.1,1.1l-0.2,0.2L15.5,67.8z"/>
	<path d="M15.9,67.1l0.5-0.5l0.2,0.2l-0.4,0.4l0.4,0.4l0.3-0.3l0.2,0.2l-0.3,0.3l0.4,0.4l0.4-0.4l0.2,0.2l-0.5,0.5L15.9,67.1z"/>
	<path d="M17.4,66.8l-0.8-0.4l0.2-0.2l0.5,0.2L17,65.9l0.2-0.2l0.4,0.8l0.9,0.4l-0.2,0.2l-0.6-0.3l0.3,0.6l-0.2,0.2L17.4,66.8z"/>
	<path d="M17.7,65.6l-0.2,0.2l-0.2-0.2l0.6-0.6l0.2,0.2l-0.2,0.2l1.1,1.1l-0.2,0.2L17.7,65.6z"/>
	<path d="M18.1,64.9l0.3-0.3c0.1-0.1,0.2-0.1,0.3-0.1c0.1,0,0.2,0.1,0.4,0.2c0.1,0.1,0.2,0.2,0.2,0.3c0,0.1,0,0.3-0.1,0.4L19,65.4l0.5,0.5l-0.2,0.2L18.1,64.9z M18.8,65.3L18.8,65.3c0.2-0.2,0.1-0.3,0-0.4c-0.1-0.1-0.2-0.2-0.4-0.1l-0.1,0.1L18.8,65.3z"/>
	<path d="M19,63.9l0.1-0.1l1.5,1l-0.2,0.2l-0.3-0.2l-0.2,0.2l0.2,0.3L20,65.4L19,63.9z M19.4,64.2L19.4,64.2l0.4,0.5l0.2-0.2L19.4,64.2z"/>
	<path d="M19.8,63.5l-0.2,0.2l-0.2-0.2l0.6-0.6l0.2,0.2L20,63.3l1.1,1.1l-0.2,0.2L19.8,63.5z"/>
	<path d="M20.5,62.8L20.3,63l-0.2-0.2l0.6-0.6l0.2,0.2l-0.2,0.2l1.1,1.1l-0.2,0.2L20.5,62.8z"/>
	<path d="M20.9,62l0.5-0.5l0.2,0.2L21.2,62l0.4,0.4l0.3-0.3l0.2,0.2l-0.3,0.3l0.4,0.4l0.4-0.4l0.2,0.2l-0.5,0.5L20.9,62z"/>
	<path d="M21.6,61.3l0.3-0.3c0.2-0.2,0.4-0.2,0.7,0c0.1,0.1,0.2,0.3,0.2,0.5l0.8,0.4l-0.2,0.2l-0.7-0.4l-0.1,0.1l0.5,0.5l-0.2,0.2L21.6,61.3z M22.4,61.7l0.1-0.1c0.1-0.1,0.1-0.2-0.1-0.3c-0.1-0.1-0.2-0.2-0.3,0L22,61.3L22.4,61.7z"/>
	<path d="M22.5,60.5l0.2-0.2l1,0.5l0,0L22.9,60l0.2-0.2l1.2,1.2l-0.2,0.2l-1-0.5l0,0l0.7,0.7l-0.2,0.2L22.5,60.5z"/>
</g>
<g fill="#ecd74c">
	<path d="M15.5,68l-0.2,0.2L15.1,68l0.6-0.6l0.2,0.2l-0.2,0.2l1.1,1.1L16.5,69L15.5,68z"/>
	<path d="M15.9,67.2l0.5-0.5l0.2,0.2l-0.4,0.3l0.4,0.4l0.3-0.3l0.2,0.2l-0.3,0.3l0.4,0.4l0.4-0.4l0.2,0.2l-0.5,0.5L15.9,67.2z"/>
	<path d="M17.4,66.9l-0.8-0.4l0.2-0.2l0.5,0.2L17,66.1l0.2-0.2l0.4,0.8l0.9,0.4l-0.2,0.2l-0.6-0.3l0.3,0.6l-0.2,0.2L17.4,66.9z"/>
	<path d="M17.7,65.8L17.5,66l-0.2-0.2l0.6-0.6l0.2,0.2l-0.2,0.2l1.1,1.1l-0.2,0.2L17.7,65.8z"/>
	<path d="M18.1,65l0.3-0.3c0.1-0.1,0.2-0.1,0.3-0.1s0.2,0.1,0.4,0.2c0.1,0.1,0.2,0.2,0.2,0.3c0,0.1,0,0.3-0.1,0.4L19,65.6l0.5,0.5l-0.2,0.2L18.1,65z M18.8,65.4L18.8,65.4c0.2-0.2,0.1-0.3,0-0.4c-0.1-0.1-0.2-0.2-0.4-0.1L18.4,65L18.8,65.4z"/>
	<path d="M19,64.1l0.1-0.1l1.5,1l-0.2,0.2l-0.3-0.2l-0.2,0.2l0.2,0.3L20,65.6L19,64.1z M19.4,64.4L19.4,64.4l0.4,0.5l0.2-0.2L19.4,64.4z"/>
	<path d="M19.8,63.6l-0.2,0.2l-0.2-0.2l0.6-0.6l0.2,0.2L20,63.4l1.1,1.1l-0.2,0.2L19.8,63.6z"/>
	<path d="M20.5,62.9l-0.2,0.2L20.1,63l0.6-0.6l0.2,0.2l-0.2,0.2l1.1,1.1L21.6,64L20.5,62.9z"/>
	<path d="M20.9,62.2l0.5-0.5l0.2,0.2l-0.4,0.4l0.4,0.4l0.3-0.3l0.2,0.2l-0.3,0.3l0.4,0.4l0.4-0.4l0.2,0.2l-0.5,0.5L20.9,62.2z"/>
	<path d="M21.6,61.5l0.3-0.3c0.2-0.2,0.4-0.2,0.7,0.1c0.1,0.1,0.2,0.3,0.2,0.5l0.8,0.4l-0.2,0.2l-0.7-0.4L22.5,62l0.5,0.5l-0.2,0.2L21.6,61.5z M22.4,61.8l0.1-0.1c0.1-0.1,0.1-0.2-0.1-0.3c-0.1-0.1-0.2-0.2-0.3,0L22,61.4L22.4,61.8z"/>
	<path d="M22.5,60.6l0.2-0.2l1,0.5l0,0l-0.7-0.7l0.2-0.2l1.2,1.2l-0.2,0.2l-1-0.5l0,0l0.7,0.7l-0.2,0.2L22.5,60.6z"/>
</g>
<g fill="#fcc332">
	<path d="M15.5,67.9l-0.2,0.2l-0.2-0.2l0.6-0.6l0.2,0.2l-0.2,0.2l1.1,1.1L16.5,69L15.5,67.9z"/>
	<path d="M15.9,67.2l0.5-0.5l0.2,0.2l-0.4,0.4l0.4,0.4l0.3-0.3l0.2,0.2l-0.3,0.3l0.4,0.4l0.4-0.3l0.2,0.2l-0.5,0.5L15.9,67.2z"/>
	<path d="M17.4,66.8l-0.8-0.4l0.2-0.2l0.5,0.2L17,66l0.2-0.2l0.4,0.8l0.9,0.4l-0.2,0.2L17.7,67l0.3,0.6l-0.2,0.2L17.4,66.8z"/>
	<path d="M17.7,65.7l-0.2,0.2l-0.2-0.2l0.6-0.6l0.2,0.2l-0.2,0.2l1.1,1.1l-0.2,0.2L17.7,65.7z"/>
	<path d="M18.1,65l0.3-0.3c0.1-0.1,0.2-0.1,0.3-0.1c0.1,0,0.2,0.1,0.4,0.2c0.1,0.1,0.2,0.2,0.2,0.3c0,0.1,0,0.3-0.1,0.4L19,65.5l0.5,0.5l-0.2,0.2L18.1,65z M18.8,65.4L18.8,65.4c0.2-0.2,0.1-0.3,0-0.4c-0.1-0.1-0.2-0.2-0.4-0.1l-0.1,0.1L18.8,65.4z"/>
	<path d="M19,64l0.1-0.1l1.5,1L20.5,65l-0.3-0.2L19.9,65l0.2,0.3L20,65.5L19,64z M19.4,64.3L19.4,64.3l0.4,0.5l0.2-0.2L19.4,64.3z"/>
	<path d="M19.8,63.5l-0.2,0.2l-0.2-0.2L20,63l0.2,0.2L20,63.4l1.1,1.1l-0.2,0.2L19.8,63.5z"/>
	<path d="M20.5,62.9l-0.2,0.2l-0.2-0.2l0.6-0.6l0.2,0.2l-0.2,0.2l1.1,1.1l-0.2,0.2L20.5,62.9z"/>
	<path d="M20.9,62.1l0.5-0.5l0.2,0.2l-0.4,0.4l0.4,0.4l0.3-0.3l0.2,0.2l-0.3,0.3l0.4,0.4l0.4-0.3l0.2,0.2l-0.5,0.5L20.9,62.1z"/>
	<path d="M21.6,61.4l0.3-0.3c0.2-0.2,0.4-0.2,0.7,0.1c0.1,0.1,0.2,0.3,0.2,0.5l0.8,0.4l-0.2,0.2l-0.7-0.4l-0.1,0.1l0.5,0.5l-0.2,0.2L21.6,61.4z M22.4,61.8l0.1-0.1c0.1-0.1,0.1-0.2-0.1-0.3c-0.1-0.1-0.2-0.2-0.3,0L22,61.4L22.4,61.8z"/>
	<path d="M22.5,60.5l0.2-0.2l1,0.5l0,0l-0.7-0.7l0.2-0.2l1.2,1.2l-0.2,0.2l-1-0.5l0,0l0.7,0.7l-0.2,0.2L22.5,60.5z"/>
</g>
<rect fill="#3d2812" x="11.9" y="76" transform="matrix(0.7072 -0.707 0.707 0.7072 -50.7995 31.7071)" width="1.9" height="2.3"/>
<rect fill="#e2d9ac" x="5.7" y="70.1" transform="matrix(-0.7067 -0.7075 0.7075 -0.7067 -38.6881 126.1909)" width="2.3" height="1.9"/>
<rect fill="#fcc332" x="8.9" y="71" transform="matrix(-0.707 0.7072 -0.7072 -0.707 69.249 119.6136)" width="1.9" height="6.3"/>
<path fill="#473015" d="M59.6,30.4l-1.4-1.4L15.2,72.1c-1.6,1.6-2.5,3.5-2.5,3.5l1.6,1.6c0,0,0.5-2.2,2.2-3.8L59.6,30.4z"/>
<path fill="#ede5b2" d="M53.6,24.4L10.5,67.4c-1.6,1.6-3.8,2.2-3.8,2.2l1.6,1.6c0,0,1.9-0.8,3.5-2.5l43.1-43.1L53.6,24.4z"/>
<path d="M154.6,29.9c0.1-1,0.3-2,0.3-3.2l0.2-3.5c0.1-1.2,0.1-2.4,0.2-3.5c0-1.1,0.1-2.2,0.1-3.1v-0.5L112,16v1c0,0.9,0,1.5,0.1,2.7c0,1.2,0.1,2.3,0.2,3.5c0.1,1.2,0.2,2.4,0.3,3.5c0.1,1.2,0.2,2.2,0.4,3.1l0.1,0.4h2.6l3.9-9.7h10.3l0,39.8c-1.1,0.2-2.2,0.4-3.2,0.6c-1.1,0.3-2.2,0.6-3.3,1l-0.3,0.1V65h21.5v-2.8l-0.3-0.1c-1-0.4-2.1-0.7-3.3-1c-1-0.2-2-0.4-3.1-0.6l0-39.9H148l3.8,9.7h2.7L154.6,29.9z"/>
<path d="M181.2,31.6c-1.3-1-2.9-1.8-4.6-2.2c-1.7-0.4-3.4-0.7-5.2-0.7c-5.4,0-9.6,1.6-12.6,4.7c-2.9,3.1-4.4,7.7-4.4,13.6c0,2.8,0.4,5.3,1.2,7.5c0.8,2.2,1.9,4.2,3.4,5.8c1.5,1.6,3.4,2.9,5.7,3.7c2.2,0.9,4.9,1.3,7.8,1.3c1.3,0,2.7-0.2,4-0.5c1.3-0.3,2.5-0.7,3.6-1.2c1.1-0.5,2.1-1.1,3-1.8c0.9-0.7,1.5-1.5,2-2.3l0.2-0.3l-1.6-1.7l-0.4,0.3c-0.8,0.7-2.1,1.2-3.7,1.7c-1.7,0.4-3.4,0.7-5.1,0.7c-2,0-3.8-0.3-5.3-1c-1.5-0.7-2.7-1.6-3.7-2.7c-1-1.2-1.7-2.6-2.2-4.1c-0.4-1.5-0.7-3-0.7-4.7h22.7l0.1-0.4c0.2-0.9,0.3-1.8,0.4-2.6c0.1-0.8,0.1-1.6,0.1-2.4c0-2.5-0.4-4.6-1.3-6.4C183.7,34,182.6,32.6,181.2,31.6z M171.2,32.7c2.3,0,4,0.8,5.1,2.4c1.1,1.6,1.7,3.9,1.7,6.6c0,0.4,0,0.7,0,1.1c0,0.2,0,0.5-0.1,0.7h-15.1c0.3-4,1.1-6.8,2.5-8.4C166.6,33.5,168.5,32.7,171.2,32.7z"/>
<path d="M222.9,61.4c-0.6-0.2-1.2-0.5-1.9-0.7l-11.2-14.4l9.7-11.9c1.8-0.5,3.1-1,4.1-1.6l0.2-0.1v-2.5h-13.2v2.5l0.2,0.1c0.7,0.5,1.8,1,3.1,1.5l-6.6,9.1l-6.8-9.1c0.4-0.2,0.9-0.3,1.3-0.5c0.6-0.3,1.2-0.6,1.7-1l0.2-0.1v-2.5h-15.7v2.5l0.2,0.1c0.6,0.4,1.2,0.7,1.8,0.9c0.5,0.2,1.1,0.5,1.8,0.7l10.6,13.3L192,60.7c-1.3,0.3-2.7,0.9-4.1,1.6l-0.3,0.1V65h13.5v-2.5l-0.3-0.1c-0.6-0.3-1.2-0.6-1.8-0.9c-0.4-0.2-0.8-0.4-1.3-0.5l7.4-10l7.3,10c-0.4,0.1-0.8,0.3-1.2,0.5c-0.6,0.3-1.2,0.6-1.9,1l-0.3,0.1V65h16v-2.5l-0.2-0.1C224.3,62,223.6,61.7,222.9,61.4z"/>
<path d="M250.8,59.2c-0.9,0.3-2,0.5-3.2,0.6c-1.3,0.1-2.4,0.2-3.2,0.2c-1.7,0-2.9-0.5-3.8-1.5c-0.8-1-1.3-2.9-1.3-5.4V34h11v-4.5h-11v-8.9H237l-0.2,0c-0.8,0.4-1.7,0.7-2.5,1.1c-0.9,0.4-1.7,0.9-2.3,1.4l-0.2,0.1v5.6c-1.9,0.5-3.8,1.3-5.6,2.4l-0.2,0.1V34h5.8v21c0,3.5,0.8,6.2,2.4,7.8c1.6,1.6,4,2.4,7,2.4c1.2,0,2.3-0.1,3.4-0.4c1.1-0.3,2.1-0.6,3-1c0.9-0.4,1.8-0.9,2.5-1.3c0.7-0.5,1.3-0.9,1.7-1.4l0.2-0.3l-0.9-1.7L250.8,59.2z"/>
<path d="M277,28.7c-2.9,0-5.3,0.7-7.2,2.2c-1.3,1-2.5,2.4-3.4,3.9v-6.1l-2.4,0c-1.6,0.2-3.2,0.5-4.8,0.9c-1.7,0.4-3.3,0.9-4.9,1.5l-0.3,0.1v2.5l4.8,0.5v39.4c-1.5,0.4-3,0.9-4.5,1.6l-0.3,0.1V78h17.2v-2.5l-0.3-0.1c-0.9-0.5-1.8-0.9-2.6-1.2c-0.7-0.2-1.3-0.4-2-0.5v-9.6c1,0.4,1.9,0.6,2.8,0.8c1,0.2,2.5,0.3,4.3,0.3c2.6,0,5.1-0.4,7.2-1.3c2.2-0.9,4-2.2,5.6-3.8c1.5-1.6,2.7-3.6,3.5-6c0.8-2.4,1.2-5,1.2-7.9c0-6.1-1.2-10.6-3.7-13.4C285,30.1,281.5,28.7,277,28.7z M283.2,46.2c0,2.2-0.2,4.3-0.7,6.1c-0.5,1.8-1.1,3.4-2,4.8c-0.9,1.3-1.9,2.4-3.1,3.1c-1.2,0.7-2.6,1.1-4.1,1.1c-1.7,0-3.1-0.1-4.2-0.4c-0.9-0.2-1.8-0.5-2.6-0.9V41.3c0.6-2.3,1.5-4.2,2.8-5.5c1.3-1.3,3.1-2,5.3-2c1.6,0,2.9,0.3,4,0.9c1.1,0.6,1.9,1.4,2.6,2.5c0.7,1.1,1.2,2.4,1.5,3.9C283,42.7,283.2,44.4,283.2,46.2z"/>
<path d="M324.2,57.6c0-0.7-0.1-1.6-0.1-2.5c0-2.3,0.1-4.7,0.2-7.2c0.1-2.5,0.2-5.2,0.2-7.9c0-1.3-0.1-2.6-0.4-3.9c-0.3-1.3-0.8-2.6-1.6-3.7c-0.8-1.1-2-2-3.6-2.7c-1.5-0.7-3.6-1-6.2-1c-2.8,0-5.4,0.3-7.7,0.9c-2.3,0.6-4.4,1.4-6.3,2.5l-0.3,0.2l0,0.3c0.1,1.4,0.3,2.9,0.7,4.4c0.4,1.5,0.8,2.9,1.3,4.3l0.1,0.3h2.6l3.5-8.2c0.7-0.3,1.4-0.4,2.2-0.5c0.8-0.1,1.6-0.1,2.3-0.1c1.3,0,2.4,0.3,3.3,0.8s1.4,1.3,1.9,2.4c0.4,1.1,0.7,2.3,0.8,3.8c0.1,1.4,0,3-0.1,4.8c-3.2,0.2-6.1,0.4-8.6,0.8c-2.6,0.3-4.8,0.9-6.6,1.7c-1.8,0.8-3.2,1.9-4.2,3.3c-1,1.4-1.4,3.2-1.4,5.4c0,2.9,1,5.2,3,7c2,1.8,4.5,2.6,7.6,2.6c1.6,0,3.1-0.2,4.3-0.7c1.3-0.5,2.4-1.1,3.3-1.8c0.9-0.8,1.7-1.6,2.3-2.6c0.2-0.4,0.5-0.8,0.6-1.2c0,0.8,0.1,1.6,0.1,2.4c0.1,1.3,0.4,2.5,0.9,3.6l0.1,0.3l2.2,0c1.4-0.2,2.8-0.6,4.3-1c1.5-0.5,2.9-1,4.1-1.6l0.3-0.1v-2.2l-5.1-0.7C324.3,58.8,324.2,58.2,324.2,57.6z M314.7,57.9c-0.6,0.6-1.3,1.1-2.2,1.5c-0.9,0.4-1.9,0.6-3,0.6c-1.7,0-3-0.5-4-1.5c-1-1-1.5-2.4-1.5-4.2c0-1.1,0.2-2,0.5-2.8c0.3-0.8,1-1.4,1.9-2c1-0.6,2.3-1,4.1-1.2c1.7-0.2,3.8-0.4,6.4-0.4v6.5c-0.1,0.4-0.4,0.9-0.7,1.5C315.8,56.7,315.3,57.3,314.7,57.9z"/>
<path d="M356.1,59.2c-0.9,0.3-2,0.5-3.2,0.6c-1.3,0.1-2.4,0.2-3.2,0.2c-1.7,0-2.9-0.5-3.8-1.5c-0.8-1-1.3-2.9-1.3-5.4V34h11v-4.5h-11v-8.9h-2.3l-0.2,0c-0.8,0.4-1.7,0.7-2.5,1.1c-0.9,0.4-1.7,0.9-2.3,1.4l-0.2,0.1v5.6c-1.9,0.5-3.8,1.3-5.6,2.4l-0.2,0.1V34h5.8v21c0,3.5,0.8,6.2,2.4,7.8c1.6,1.6,4,2.4,7,2.4c1.2,0,2.3-0.1,3.4-0.4c1.1-0.3,2.1-0.6,3-1c0.9-0.4,1.8-0.9,2.5-1.3c0.7-0.5,1.3-0.9,1.7-1.4l0.2-0.3l-0.9-1.7L356.1,59.2z"/>
<path d="M383.1,59.2c-0.9,0.3-2,0.5-3.2,0.6c-1.3,0.1-2.4,0.2-3.2,0.2c-1.7,0-2.9-0.5-3.8-1.5c-0.8-1-1.3-2.9-1.3-5.4V34h11v-4.5h-11v-8.9h-2.3l-0.2,0c-0.8,0.4-1.7,0.7-2.5,1.1c-0.9,0.4-1.7,0.9-2.3,1.4l-0.2,0.1v5.6c-1.9,0.5-3.8,1.3-5.6,2.4l-0.2,0.1V34h5.8v21c0,3.5,0.8,6.2,2.4,7.8c1.6,1.6,4,2.4,7,2.4c1.2,0,2.3-0.1,3.4-0.4c1.1-0.3,2.1-0.6,3-1c0.9-0.4,1.8-0.9,2.5-1.3c0.7-0.5,1.3-0.9,1.7-1.4l0.2-0.3l-0.9-1.7L383.1,59.2z"/>
<path d="M413.9,31.6c-1.3-1-2.9-1.8-4.6-2.2c-1.7-0.4-3.4-0.7-5.2-0.7c-5.4,0-9.6,1.6-12.6,4.7c-2.9,3.1-4.4,7.7-4.4,13.6c0,2.8,0.4,5.3,1.2,7.5c0.8,2.2,1.9,4.2,3.4,5.8c1.5,1.6,3.4,2.9,5.7,3.7c2.2,0.9,4.9,1.3,7.8,1.3c1.3,0,2.7-0.2,4-0.5c1.3-0.3,2.5-0.7,3.6-1.2c1.1-0.5,2.1-1.1,3-1.8c0.9-0.7,1.5-1.5,2-2.3l0.2-0.3l-1.6-1.7l-0.4,0.3c-0.8,0.7-2.1,1.2-3.7,1.7c-1.7,0.4-3.4,0.7-5.1,0.7c-2,0-3.8-0.3-5.3-1c-1.5-0.7-2.7-1.6-3.7-2.7c-1-1.2-1.7-2.6-2.2-4.1c-0.4-1.5-0.7-3-0.7-4.7h22.7l0.1-0.4c0.2-0.9,0.3-1.8,0.4-2.6c0.1-0.8,0.1-1.6,0.1-2.4c0-2.5-0.4-4.6-1.3-6.4C416.3,34,415.2,32.6,413.9,31.6z M403.8,32.7c2.3,0,4,0.8,5.1,2.4c1.1,1.6,1.7,3.9,1.7,6.6c0,0.4,0,0.7,0,1.1c0,0.2,0,0.5-0.1,0.7h-15.1c0.3-4,1.1-6.8,2.5-8.4C399.2,33.5,401.2,32.7,403.8,32.7z"/>
<path d="M448.2,31.5c-0.3-0.7-0.6-1.4-0.9-2l-0.1-0.2l-0.3,0c-1.4-0.1-2.7,0-4,0.4c-1.3,0.4-2.5,1-3.6,1.7c-1.1,0.7-2,1.6-2.9,2.5c-0.5,0.6-0.9,1.1-1.3,1.7v-6.3l-2.4,0c-1.5,0.2-3.1,0.5-4.8,0.9c-1.7,0.4-3.3,0.9-4.9,1.6l-0.3,0.1v2.5l4.8,0.5v25.8c-0.7,0.2-1.3,0.3-2,0.5c-0.8,0.2-1.7,0.6-2.6,1.1l-0.3,0.1V65H441v-2.5l-0.3-0.1c-1-0.5-2-0.9-3-1.2c-0.8-0.2-1.7-0.4-2.5-0.5V41.1c0.6-1.5,1.3-2.7,2-3.4c0.7-0.7,1.3-1.2,1.8-1.5H449v-2.3l0-0.2C448.8,32.9,448.5,32.2,448.2,31.5z"/>
<path d="M491.8,62.4c-1.2-0.7-2.8-1.3-4.6-1.6V44c0-2.8-0.3-5.2-0.8-7.1c-0.6-1.9-1.4-3.4-2.5-4.6c-1.1-1.1-2.4-2-4.1-2.4c-1.6-0.4-3.4-0.7-5.4-0.7c-2.8,0-5.3,0.8-7.3,2.3c-1.5,1.2-2.7,2.5-3.7,4v-6.3l-2.4,0c-1.8,0.3-3.6,0.7-5.2,1.1c-1.7,0.4-3.2,0.9-4.4,1.4l-0.3,0.1v2.6l4.8,0.5v25.8c-1.8,0.5-3.4,1-4.5,1.6l-0.3,0.1V65h16.8v-2.5l-0.2-0.1c-1.3-0.8-2.7-1.3-4.1-1.6V41.4c0.3-0.9,0.8-1.7,1.3-2.6c0.6-0.8,1.2-1.6,2-2.3c0.8-0.7,1.6-1.2,2.6-1.6c1-0.4,2.1-0.6,3.2-0.6c2.6,0,4.4,0.9,5.4,2.7c1,1.9,1.5,4.6,1.5,7.9v15.7c-1.4,0.4-2.8,1-4,1.6l-0.3,0.1V65H492v-2.5L491.8,62.4z"/>
</svg>
